<svg width="282" height="64" viewBox="0 0 282 64" fill="none" xmlns="http://www.w3.org/2000/svg">
<path d="M36.632 34.568C36.632 35.592 36.568 36.6586 36.44 37.768H11.672C11.8427 39.9866 12.5467 41.6933 13.784 42.888C15.064 44.04 16.6213 44.616 18.456 44.616C21.1867 44.616 23.0853 43.464 24.152 41.16H35.8C35.2027 43.5067 34.1147 45.6187 32.536 47.496C31 49.3733 29.0587 50.8453 26.712 51.912C24.3653 52.9787 21.7413 53.512 18.84 53.512C15.3413 53.512 12.2267 52.7653 9.49599 51.272C6.76533 49.7787 4.63199 47.6453 3.09599 44.872C1.55999 42.0987 0.791992 38.856 0.791992 35.144C0.791992 31.432 1.53866 28.1893 3.03199 25.416C4.56799 22.6427 6.70133 20.5093 9.43199 19.016C12.1627 17.5226 15.2987 16.776 18.84 16.776C22.296 16.776 25.368 17.5013 28.056 18.952C30.744 20.4027 32.8347 22.472 34.328 25.16C35.864 27.848 36.632 30.984 36.632 34.568ZM25.432 31.688C25.432 29.8107 24.792 28.3173 23.512 27.208C22.232 26.0987 20.632 25.544 18.712 25.544C16.8773 25.544 15.32 26.0773 14.04 27.144C12.8027 28.2106 12.0347 29.7253 11.736 31.688H25.432Z" fill="#1D1D2C"/>
<path d="M84.9735 16.904C89.4108 16.904 92.9308 18.248 95.5335 20.936C98.1788 23.624 99.501 27.3573 99.501 32.136V53H88.6215V33.608C88.6215 31.304 88.0028 29.5333 86.7655 28.296C85.5708 27.016 83.9068 26.376 81.7735 26.376C79.6402 26.376 77.9548 27.016 76.7175 28.296C75.5228 29.5333 74.9255 31.304 74.9255 33.608V53H64.0455V33.608C64.0455 31.304 63.4268 29.5333 62.1895 28.296C60.9948 27.016 59.3308 26.376 57.1975 26.376C55.0642 26.376 53.3788 27.016 52.1415 28.296C50.9468 29.5333 50.3495 31.304 50.3495 33.608V53H39.4055V17.288H50.3495V21.768C51.4588 20.2747 52.9095 19.1013 54.7015 18.248C56.4935 17.352 58.5202 16.904 60.7815 16.904C63.4695 16.904 65.8588 17.48 67.9495 18.632C70.0828 19.784 71.7468 21.4266 72.9415 23.56C74.1788 21.5973 75.8642 19.9973 77.9975 18.76C80.1308 17.5227 82.4562 16.904 84.9735 16.904Z" fill="#1D1D2C"/>
<path d="M114.099 22.344C115.166 20.68 116.638 19.336 118.515 18.312C120.393 17.288 122.59 16.776 125.107 16.776C128.051 16.776 130.718 17.5226 133.107 19.016C135.497 20.5093 137.374 22.6427 138.739 25.416C140.147 28.1893 140.851 31.4107 140.851 35.08C140.851 38.7493 140.147 41.992 138.739 44.808C137.374 47.5813 135.497 49.736 133.107 51.272C130.718 52.7653 128.051 53.512 125.107 53.512C122.633 53.512 120.435 53 118.515 51.976C116.638 50.952 115.166 49.6293 114.099 48.008L114.035 61H103.155V17.288H114.099V22.344ZM129.715 35.08C129.715 32.3493 128.947 30.216 127.411 28.68C125.918 27.1013 124.062 26.312 121.843 26.312C119.667 26.312 117.811 27.1013 116.275 28.68C114.782 30.2587 114.035 32.4133 114.035 35.144C114.035 37.8746 114.782 40.0293 116.275 41.608C117.811 43.1867 119.667 43.976 121.843 43.976C124.019 43.976 125.875 43.1867 127.411 41.608C128.947 39.9867 129.715 37.8107 129.715 35.08Z" fill="#1D1D2C"/>
<path d="M143.417 35.08C143.417 31.4107 144.1 28.1893 145.465 25.416C146.873 22.6427 148.772 20.5093 151.161 19.016C153.55 17.5226 156.217 16.776 159.161 16.776C161.678 16.776 163.876 17.288 165.753 18.312C167.673 19.336 169.145 20.68 170.169 22.344V17.288H181.113V53H170.169V47.944C169.102 49.608 167.609 50.952 165.689 51.976C163.812 53 161.614 53.512 159.097 53.512C156.196 53.512 153.55 52.7653 151.161 51.272C148.772 49.736 146.873 47.5813 145.465 44.808C144.1 41.992 143.417 38.7493 143.417 35.08ZM170.169 35.144C170.169 32.4133 169.401 30.2587 167.865 28.68C166.372 27.1013 164.537 26.312 162.361 26.312C160.185 26.312 158.329 27.1013 156.793 28.68C155.3 30.216 154.553 32.3493 154.553 35.08C154.553 37.8107 155.3 39.9867 156.793 41.608C158.329 43.1867 160.185 43.976 162.361 43.976C164.537 43.976 166.372 43.1867 167.865 41.608C169.401 40.0293 170.169 37.8746 170.169 35.144Z" fill="#1D1D2C"/>
<path d="M206.934 43.72V53H201.366C197.398 53 194.305 52.04 192.086 50.12C189.868 48.1573 188.758 44.9787 188.758 40.584V26.376H184.406V17.288H188.758V8.58398H199.702V17.288H206.87V26.376H199.702V40.712C199.702 41.7786 199.958 42.5466 200.47 43.016C200.982 43.4853 201.836 43.72 203.03 43.72H206.934Z" fill="#1D1D2C"/>
<path d="M222.974 17.288V53H212.03V17.288H222.974Z" fill="#1D1D2C"/>
<path d="M226.729 35.08C226.729 31.4107 227.412 28.1893 228.777 25.416C230.185 22.6427 232.084 20.5093 234.473 19.016C236.863 17.5226 239.529 16.776 242.473 16.776C244.991 16.776 247.188 17.288 249.065 18.312C250.985 19.336 252.458 20.68 253.482 22.344V17.288H264.426V53H253.482V47.944C252.415 49.608 250.921 50.952 249.001 51.976C247.124 53 244.927 53.512 242.409 53.512C239.508 53.512 236.863 52.7653 234.473 51.272C232.084 49.736 230.185 47.5813 228.777 44.808C227.412 41.992 226.729 38.7493 226.729 35.08ZM253.482 35.144C253.482 32.4133 252.713 30.2587 251.177 28.68C249.684 27.1013 247.849 26.312 245.673 26.312C243.497 26.312 241.641 27.1013 240.105 28.68C238.612 30.216 237.865 32.3493 237.865 35.08C237.865 37.8107 238.612 39.9867 240.105 41.608C241.641 43.1867 243.497 43.976 245.673 43.976C247.849 43.976 249.684 43.1867 251.177 41.608C252.713 40.0293 253.482 37.8746 253.482 35.144Z" fill="#1D1D2C"/>
<path d="M217.5 15C221.09 15 224 12.0899 224 8.5C224 4.91015 221.09 2 217.5 2C213.91 2 211 4.91015 211 8.5C211 12.0899 213.91 15 217.5 15Z" fill="#1D1D2C"/>
<path d="M274.5 53C278.09 53 281 50.0899 281 46.5C281 42.9101 278.09 40 274.5 40C270.91 40 268 42.9101 268 46.5C268 50.0899 270.91 53 274.5 53Z" fill="#3DBDC3"/>
</svg>
