<svg width="58" height="58" viewBox="0 0 58 58" fill="none" xmlns="http://www.w3.org/2000/svg">
<mask id="mask0_1_8" style="mask-type:luminance" maskUnits="userSpaceOnUse" x="0" y="0" width="58" height="58">
<path d="M0 0H58V58H0V0Z" fill="white"/>
</mask>
<g mask="url(#mask0_1_8)">
<path fill-rule="evenodd" clip-rule="evenodd" d="M28.3867 2.28931C35.4008 2.3229 42.1699 5.07717 47.2333 9.93105C52.4185 14.9021 55.4069 21.5678 55.6682 28.746C55.9234 35.7563 53.476 42.6423 48.8341 47.9012C43.7429 53.6688 36.6611 56.9816 29.0123 57.201C28.7506 57.2087 28.4888 57.2125 28.2269 57.2124C24.1055 57.2124 20.0226 56.283 16.3244 54.5036L1.94978 57.7008C1.91687 57.7072 1.88291 57.7057 1.8507 57.6963C1.8185 57.687 1.78898 57.6702 1.76459 57.6472C1.74019 57.6242 1.72162 57.5957 1.71042 57.5641C1.69921 57.5325 1.69569 57.4987 1.70014 57.4654L4.12841 42.9306C2.05611 39.1442 0.899499 34.8781 0.774799 30.5385C0.564549 23.206 3.22216 16.2308 8.25825 10.8975C13.4797 5.36766 20.6101 2.28931 28.2506 2.28931H28.3867ZM28.2337 7.05425C28.0139 7.05426 27.7941 7.0574 27.5744 7.06367C15.0646 7.42255 5.17893 17.892 5.53781 30.4019C5.64752 34.2217 6.72366 37.9712 8.64999 41.245L9.06807 41.9548L7.26886 51.8177L17.0291 49.5136L17.7661 49.8974C20.982 51.5707 24.5855 52.4477 28.2262 52.4477C28.4425 52.4477 28.6593 52.4446 28.8756 52.4383C41.3857 52.0794 51.2713 41.6102 50.9124 29.1003C50.5598 16.8111 40.4497 7.05425 28.2337 7.05425ZM18.7398 16.485C19.1987 16.4993 19.6586 16.5124 20.0598 16.5418C20.5501 16.5769 21.0929 16.6168 21.5738 17.7811C22.1447 19.1637 23.3791 22.6154 23.5408 22.9656C23.7024 23.3158 23.8049 23.722 23.5611 24.1754C23.3172 24.6282 23.1935 24.9122 22.8373 25.3042C22.4806 25.6964 22.0854 26.181 21.7664 26.4801C21.4102 26.8134 21.04 27.1761 21.4209 27.8782C21.8015 28.581 23.1149 30.8809 25.1075 32.7719C27.6682 35.2021 29.7216 36.004 30.5373 36.3844C30.8316 36.5219 31.0762 36.5869 31.2898 36.5869C31.5832 36.5869 31.8178 36.4641 32.0419 36.237C32.4711 35.8022 33.7625 34.2952 34.3063 33.6018C34.5907 33.2391 34.8483 33.1105 35.128 33.1105C35.3517 33.1105 35.5898 33.1929 35.8677 33.3036C36.4922 33.5532 39.8286 35.3256 40.5072 35.6917C41.1858 36.0576 41.6397 36.2444 41.8033 36.5369C41.9666 36.8307 41.9241 38.2109 41.3004 39.8035C40.6766 41.3963 37.8158 42.8632 36.5487 42.9391C36.1778 42.9613 35.8128 43.0133 35.338 43.0133C34.1898 43.0133 32.3995 42.711 28.333 40.9596C21.4139 37.9801 17.2122 30.6586 16.8816 30.1883C16.5518 29.7173 14.1829 26.3624 14.2871 22.969C14.3913 19.576 16.2229 17.9621 16.8758 17.2915C17.5018 16.6484 18.219 16.4841 18.6821 16.4841L18.7398 16.485Z" fill="#3DBDC3"/>
</g>
</svg>
