<svg width="732" height="730" viewBox="0 0 732 730" fill="none" xmlns="http://www.w3.org/2000/svg">
<path d="M467.561 162.394L520.822 181.534L588.36 159.255L467.561 162.394ZM466.68 162.588L478.75 195.413L520.082 181.778L466.68 162.588ZM466.375 163.152L460.69 201.372L478.294 195.564L466.375 163.152ZM590.146 159.257L576.785 201.458L682.462 180.283L590.146 159.257ZM521.556 181.798L576.278 201.463L589.613 159.348L521.556 181.798ZM578.112 201.682L675.934 210.401L683.285 180.61L578.112 201.682ZM676.416 210.444L708.732 213.324L683.722 180.84L676.416 210.444ZM709.382 213.382L713.995 213.792L687.204 184.575L709.382 213.382ZM714.703 213.857L747.031 216.737L684.823 181.267L714.703 213.857ZM465.946 162.78L393.446 223.553L460.181 201.54L465.946 162.78ZM361.286 200.355L363.178 233.537L392.213 223.958L465.086 162.874L361.286 200.355ZM715.183 214.383L738.12 239.393L747.751 217.284L715.183 214.383ZM360.84 200.974L335.431 242.691L362.707 233.693L360.84 200.974ZM709.781 213.9L734.969 246.617L737.909 239.875L714.475 214.318L709.781 213.9ZM363.206 234.034L363.982 247.625L391.219 224.794L363.206 234.034ZM735.35 246.948L748.958 251.926L738.264 240.262L735.35 246.948ZM335.045 243.324L328.483 254.098L363.518 247.918L362.736 234.19L335.045 243.324ZM334.342 243.555L272.4 263.988L327.854 254.208L334.342 243.555ZM360.233 201.048L270.629 264.067L334.728 242.923L360.233 201.048ZM478.915 195.867L504.725 266.064L575.974 201.864L520.814 182.043L478.915 195.867ZM736.291 247.805L771.139 276.115L749.664 252.696L736.291 247.805ZM749.94 252.286L819.97 277.901L748.198 217.467L738.473 239.782L749.94 252.286ZM773.693 278.191L804.442 303.173L820.795 278.712L750.646 253.054L773.693 278.191ZM775.918 280.615L801.134 308.117L804.17 303.574L775.918 280.615ZM460.61 201.903L442.759 321.898L504.341 266.41L478.457 196.015L460.61 201.903ZM364.13 248.127L442.253 322.032L460.099 202.071L392.45 224.386L364.13 248.127ZM364.044 248.705L368.522 328.368L441.876 322.327L364.044 248.705ZM443.002 322.325L527.206 328.594L504.521 266.895L443.002 322.325ZM328.15 254.643L279.605 334.344L363.079 248.482L328.15 254.643ZM269.434 265.001L278.443 335.33L327.521 254.753L269.434 265.001ZM363.562 248.676L278.911 335.748L368.042 328.407L363.562 248.676ZM676.298 210.915L645.23 336.802L734.71 247.066L709.13 213.84L676.298 210.915ZM576.842 202.051L644.712 336.898L675.816 210.871L576.842 202.051ZM527.731 328.632L644.383 337.313L576.36 202.162L504.902 266.549L527.731 328.632ZM269.078 266.014L242.251 362.715L278.038 335.933L269.078 266.014ZM804.814 303.478L880.946 365.333L821.167 279.019L804.814 303.478ZM801.466 308.482L856.934 368.976L881.503 366.403L804.547 303.878L801.466 308.482ZM735.35 247.656L753.461 379.407L800.858 308.53L773.362 278.542L735.35 247.656ZM645.218 337.495L753.017 379.695L734.856 247.598L645.218 337.495ZM801.192 308.895L753.792 379.774L856.339 369.038L801.192 308.895ZM857.338 369.415L873.331 386.858L881.726 366.862L857.338 369.415ZM873.689 387.25L881.702 395.988L881.856 367.79L873.689 387.25ZM443.268 322.827L553.8 400.922L527.388 329.088L443.268 322.827ZM527.914 329.127L554.41 401.187L644.105 337.774L527.914 329.127ZM443.299 323.436L498.425 407.69L553.642 401.398L443.299 323.436ZM268.486 266.359L180.09 409.234L241.622 363.185L268.486 266.359ZM179.886 409.987L227.817 412.939L241.411 363.941L179.886 409.987ZM228.306 412.97L234.245 413.335L277.519 336.919L242.04 363.47L228.306 412.97ZM234.778 413.369L280.716 416.201L278.081 336.9L234.778 413.369ZM882.178 396.509L901.97 418.095L882.336 367.838L882.178 396.509ZM368.549 328.848L373.754 421.45L441.938 322.805L368.549 328.848ZM278.863 336.233L373.282 421.591L368.069 328.889L278.863 336.233ZM442.418 322.954L374.052 421.862L497.892 407.75L442.418 322.954ZM281.198 416.23L372.886 421.879L278.551 336.598L281.198 416.23ZM754.21 380.213L856.517 426.917L873.127 387.348L856.745 369.478L754.21 380.213ZM645.374 338.071L701.674 428.307L752.868 380.15L645.374 338.071ZM228.175 413.443L222.404 434.247L233.982 413.801L228.175 413.443ZM498.72 408.139L516.487 435.3L553.574 401.887L498.72 408.139ZM856.954 427.116L881.47 438.31L881.698 396.694L873.485 387.737L856.954 427.116ZM701.935 428.722L726.6 468.257L752.822 380.854L701.935 428.722ZM221.949 436.022L283.392 496.675L280.733 416.681L234.516 413.835L221.949 436.022ZM179.409 410.438L159.055 503.026L221.435 435.943L227.686 413.412L179.409 410.438ZM516.751 435.706L583.649 537.96L554.146 402.019L516.751 435.706ZM881.947 439.054L881.402 538.107L922.45 520.147L913.423 453.422L881.947 439.054ZM554.558 401.669L584.194 538.219L644.357 338.184L554.558 401.669ZM644.866 338.16L584.645 538.39L701.318 428.642L644.866 338.16ZM584.669 539.026L699.23 559.481L726.415 468.869L701.575 429.058L584.669 539.026ZM373.778 422.376L362.381 574.128L516.125 435.624L498.185 408.199L373.778 422.376ZM283.889 497.165L361.896 574.171L373.296 422.386L281.213 416.712L283.889 497.165ZM516.391 436.03L362.861 574.342L583.752 538.999L516.391 436.03ZM726.938 468.799L793.43 575.371L753.266 381.046L726.938 468.799ZM753.641 380.482L794.014 575.832L856.332 427.361L753.641 380.482ZM856.769 427.56L794.39 576.178L880.922 538.318L881.465 438.835L856.769 427.56ZM699.706 559.567L793.447 576.307L726.754 469.411L699.706 559.567ZM283.91 497.861L287.081 593.232L361.625 574.577L283.91 497.861ZM221.981 436.728L244.325 603.931L286.603 593.35L283.414 497.371L221.981 436.728ZM881.4 538.632L880.999 611.558L922.234 520.767L881.4 538.632ZM794.549 576.634L880.514 612.324L880.918 538.843L794.549 576.634ZM881.064 612.576L898.354 621.917L921.907 522.648L881.064 612.576ZM221.563 437.215L166.88 623.309L243.857 604.049L221.563 437.215ZM794.46 577.116L852.857 687.326L880.45 612.816L794.46 577.116ZM167.071 623.755L255.6 691.937L243.922 604.526L167.071 623.755ZM362.652 574.86L508.38 697.774L583.745 539.487L362.652 574.86ZM362.465 575.33L388.906 709.668L507.874 697.975L362.465 575.33ZM218.936 716.885L259.114 718.226L255.691 692.611L167.312 624.55L218.936 716.885ZM287.098 593.722L291.245 718.56L361.654 575.064L287.098 593.722ZM256.142 692.35L290.782 719.028L286.62 593.842L244.39 604.409L256.142 692.35ZM361.999 575.45L291.444 719.249L388.426 709.716L361.999 575.45ZM259.601 718.241L290.299 719.263L256.231 693.029L259.601 718.241ZM898.678 622.637L874.646 723.931L912.041 629.851L898.678 622.637ZM880.968 613.07L874.063 724.301L898.241 622.399L880.968 613.07ZM853.159 687.895L873.463 726.216L880.414 614.292L853.159 687.895ZM852.938 688.5L838.471 727.565L873.257 726.85L852.938 688.5ZM794.227 577.699L801.451 728.328L837.955 727.574L852.636 687.931L794.227 577.699ZM793.778 578.364L758.515 729.214L800.971 728.338L793.778 578.364ZM699.566 560.03L648.324 730.829L793.457 576.797L699.566 560.03ZM584.51 539.484L647.789 730.934L699.091 559.947L584.51 539.484ZM508.807 697.994L647.443 731.4L584.117 539.82L508.807 697.994ZM793.5 577.45L648.367 731.482L758.021 729.223L793.5 577.45ZM291.986 719.676L399.511 766.032L388.519 710.189L291.986 719.676ZM508.98 698.532L555.571 772.584L647.057 731.801L508.98 698.532ZM648.722 731.952L745.294 783.662L757.908 729.706L648.722 731.952ZM508.577 698.789L486.653 803.309L555.13 772.781L508.577 698.789ZM400.046 766.26L486.149 803.381L508.162 698.431L388.999 710.143L400.046 766.26ZM201.173 716.772L269.902 809.03L218.649 717.355L201.173 716.772ZM259.666 718.723L271.954 810.686L290.746 719.758L259.666 718.723ZM219.21 717.374L271.5 810.902L259.178 718.706L219.21 717.374ZM838.291 728.05L806.201 814.721L873.156 727.332L838.291 728.05ZM801.475 728.808L805.606 814.946L837.775 728.059L801.475 728.808ZM745.733 783.898L805.162 815.719L800.995 728.818L758.402 729.694L745.733 783.898ZM745.618 784.38L736.296 824.254L804.641 815.983L745.618 784.38ZM648.379 732.317L699.914 828.658L735.79 824.316L745.178 784.147L648.379 732.317ZM272.182 811.966L342.199 838.001L291.12 720.319L272.182 811.966ZM647.856 732.348L613.742 839.086L699.403 828.72L647.856 732.348ZM555.833 772.994L598.411 840.672L647.323 732.209L555.833 772.994ZM486.984 803.686L597.886 840.739L555.389 773.191L486.984 803.686ZM646.296 735.655L598.841 840.891L613.219 839.15L646.296 735.655ZM599.712 841.267L611.534 844.416L613.056 839.652L599.712 841.267ZM486.619 804.07L494.498 855.979L597.41 841.085L486.619 804.07ZM598.92 841.553L607.406 857.335L611.388 844.874L598.92 841.553ZM486.185 804.413L451.488 862.203L494.023 856.049L486.185 804.413ZM342.823 838.236L419.321 866.678L399.622 766.603L291.499 719.988L342.823 838.236ZM400.157 766.834L419.83 866.785L450.874 862.291L485.976 803.832L400.157 766.834ZM700.157 829.111L724.171 874.011L735.672 824.815L700.157 829.111ZM736.181 824.75L724.642 874.116L804.528 816.48L736.181 824.75ZM612 844.54L723.79 874.311L699.648 829.174L613.582 839.59L612 844.54ZM273.42 812.94L358.567 875.714L342.463 838.613L273.42 812.94ZM343.09 838.846L359.29 876.171L418.692 866.957L343.09 838.846ZM607.723 857.921L627.31 894.343L723.216 874.654L611.851 844.997L607.723 857.921ZM360.228 876.511L429.799 897.394L450.554 862.825L419.674 867.291L360.228 876.511ZM607.519 858.554L593.89 901.2L626.818 894.445L607.519 858.554ZM627.547 894.782L635.537 909.64L721.634 875.469L627.547 894.782ZM426.17 904.368L499.178 918.723L430.018 897.96L426.17 904.368ZM494.57 856.452L504.134 919.449L597.641 841.538L494.57 856.452ZM598.373 841.551L504.847 919.478L593.35 901.313L607.202 857.969L598.373 841.551ZM430.272 897.537L503.666 919.565L494.095 856.522L451.169 862.735L430.272 897.537ZM593.182 901.836L506.465 919.637L587.796 918.689L593.182 901.836ZM503.959 920.146L503.911 920.14L425.743 904.771L425.57 904.637L425.582 904.414L429.545 897.818L359.074 876.665L359.066 876.663L359.045 876.653L359.04 876.651H359.038H359.033L359.03 876.648L359.026 876.646L358.999 876.629L271.764 812.314L271.762 812.311H271.759L271.757 812.309L271.754 812.306L271.75 812.304V812.302H271.747L271.74 812.294L271.738 812.292L271.735 812.29L271.733 812.287V812.285H271.73V812.282L271.728 812.28H271.726V812.278L271.723 812.275H271.721V812.273L271.714 812.266L271.711 812.261L200.49 716.659L200.469 716.407L200.691 716.278L218.376 716.866L166.322 623.76L166.293 623.633V623.63V623.628V623.626L166.302 623.575L221.134 436.973L158.808 503.998L158.521 504.046L158.397 503.782L178.984 410.138L179.014 410.062L179.015 410.059H179.016L268.961 264.677L268.997 264.634V264.631L269.016 264.615L269.021 264.61L269.033 264.603L360.898 199.992L360.905 199.99L360.91 199.987L360.912 199.985L360.96 199.963L466.19 161.967L466.226 161.955L466.274 161.95L589.97 158.734H590.006H590.009L590.04 158.738L683.657 180.065L683.693 180.075H683.695L683.731 180.091L748.226 216.867L748.262 216.893L821.321 278.407L821.366 278.46L882.298 366.442L882.322 366.48V366.483L882.329 366.499L902.885 419.117L902.789 419.407L902.486 419.364L882.175 397.215L881.95 438.528L913.745 453.043L913.879 453.228L922.949 520.258L922.951 520.32L922.944 520.351L898.793 622.15L912.456 629.532L912.564 629.832L873.874 727.169L873.871 727.174L873.869 727.178V727.181V727.183L873.866 727.186V727.188L873.84 727.231L805.613 816.276V816.278L805.61 816.281L805.608 816.283V816.286H805.606V816.288L805.558 816.329L724.406 874.874L724.351 874.908L635.515 910.165L635.215 910.054L627.053 894.883L593.722 901.726L588.202 919L587.974 919.166L503.966 920.146H503.959Z" fill="#3DBDC3" fill-opacity="0.8"/>
<path d="M445.164 322.524C445.164 321.01 443.938 319.783 442.423 319.783C440.911 319.783 439.685 321.01 439.685 322.524C439.685 324.036 440.911 325.265 442.423 325.265C443.938 325.265 445.164 324.036 445.164 322.524Z" fill="#3DBDC3" fill-opacity="0.8"/>
<path d="M686.35 180.3C686.35 178.786 685.123 177.557 683.609 177.557C682.094 177.557 680.868 178.786 680.868 180.3C680.868 181.812 682.094 183.039 683.609 183.039C685.123 183.039 686.35 181.812 686.35 180.3Z" fill="#3DBDC3" fill-opacity="0.8"/>
<path d="M592.723 158.974C592.723 157.459 591.497 156.233 589.982 156.233C588.468 156.233 587.242 157.459 587.242 158.974C587.242 160.488 588.468 161.712 589.982 161.712C591.497 161.712 592.723 160.488 592.723 158.974Z" fill="#3DBDC3" fill-opacity="0.8"/>
<path d="M271.906 264.802C271.906 263.29 270.679 262.061 269.167 262.061C267.653 262.061 266.426 263.29 266.426 264.802C266.426 266.316 267.653 267.543 269.167 267.543C270.679 267.543 271.906 266.316 271.906 264.802Z" fill="#3DBDC3" fill-opacity="0.8"/>
<path d="M224.392 436.063C224.392 434.551 223.165 433.323 221.651 433.323C220.137 433.323 218.911 434.551 218.911 436.063C218.911 437.578 220.137 438.804 221.651 438.804C223.165 438.804 224.392 437.578 224.392 436.063Z" fill="#3DBDC3" fill-opacity="0.8"/>
<path d="M281.033 336.041C281.033 334.526 279.806 333.3 278.292 333.3C276.78 333.3 275.551 334.526 275.551 336.041C275.551 337.553 276.78 338.782 278.292 338.782C279.806 338.782 281.033 337.553 281.033 336.041Z" fill="#3DBDC3" fill-opacity="0.8"/>
<path d="M293.777 719.53C293.777 718.015 292.55 716.789 291.038 716.789C289.524 716.789 288.298 718.015 288.298 719.53C288.298 721.042 289.524 722.271 291.038 722.271C292.55 722.271 293.777 721.042 293.777 719.53Z" fill="#3DBDC3" fill-opacity="0.8"/>
<path d="M511.205 698.16C511.205 696.646 509.976 695.419 508.464 695.419C506.95 695.419 505.723 696.646 505.723 698.16C505.723 699.672 506.95 700.901 508.464 700.901C509.976 700.901 511.205 699.672 511.205 698.16Z" fill="#3DBDC3" fill-opacity="0.8"/>
<path d="M293.777 719.53C293.777 718.015 292.55 716.789 291.038 716.789C289.524 716.789 288.298 718.015 288.298 719.53C288.298 721.042 289.524 722.271 291.038 722.271C292.55 722.271 293.777 721.042 293.777 719.53Z" fill="#3DBDC3" fill-opacity="0.8"/>
<path d="M364.836 574.707C364.836 573.195 363.61 571.966 362.098 571.966C360.583 571.966 359.357 573.195 359.357 574.707C359.357 576.221 360.583 577.447 362.098 577.447C363.61 577.447 364.836 576.221 364.836 574.707Z" fill="#3DBDC3" fill-opacity="0.8"/>
<path d="M293.777 719.53C293.777 718.015 292.55 716.789 291.038 716.789C289.524 716.789 288.298 718.015 288.298 719.53C288.298 721.042 289.524 722.271 291.038 722.271C292.55 722.271 293.777 721.042 293.777 719.53Z" fill="#3DBDC3" fill-opacity="0.8"/>
<path d="M203.424 716.518C203.424 715.003 202.196 713.777 200.683 713.777C199.169 713.777 197.943 715.003 197.943 716.518C197.943 718.032 199.169 719.259 200.683 719.259C202.196 719.259 203.424 718.032 203.424 716.518Z" fill="#3DBDC3" fill-opacity="0.8"/>
<path d="M293.777 719.53C293.777 718.015 292.55 716.789 291.038 716.789C289.524 716.789 288.298 718.015 288.298 719.53C288.298 721.042 289.524 722.271 291.038 722.271C292.55 722.271 293.777 721.042 293.777 719.53Z" fill="#3DBDC3" fill-opacity="0.8"/>
<path d="M169.272 623.645C169.272 622.13 168.045 620.904 166.532 620.904C165.019 620.904 163.792 622.13 163.792 623.645C163.792 625.159 165.019 626.386 166.532 626.386C168.045 626.386 169.272 625.159 169.272 623.645Z" fill="#3DBDC3" fill-opacity="0.8"/>
<path d="M224.392 436.063C224.392 434.551 223.165 433.323 221.651 433.323C220.137 433.323 218.911 434.551 218.911 436.063C218.911 437.578 220.137 438.804 221.651 438.804C223.165 438.804 224.392 437.578 224.392 436.063Z" fill="#3DBDC3" fill-opacity="0.8"/>
<path d="M364.836 574.707C364.836 573.195 363.61 571.966 362.098 571.966C360.583 571.966 359.357 573.195 359.357 574.707C359.357 576.221 360.583 577.447 362.098 577.447C363.61 577.447 364.836 576.221 364.836 574.707Z" fill="#3DBDC3" fill-opacity="0.8"/>
<path d="M169.272 623.645C169.272 622.13 168.045 620.904 166.532 620.904C165.019 620.904 163.792 622.13 163.792 623.645C163.792 625.159 165.019 626.386 166.532 626.386C168.045 626.386 169.272 625.159 169.272 623.645Z" fill="#3DBDC3" fill-opacity="0.8"/>
<path d="M224.392 436.063C224.392 434.551 223.165 433.323 221.651 433.323C220.137 433.323 218.911 434.551 218.911 436.063C218.911 437.578 220.137 438.804 221.651 438.804C223.165 438.804 224.392 437.578 224.392 436.063Z" fill="#3DBDC3" fill-opacity="0.8"/>
<path d="M161.373 503.835C161.373 502.32 160.146 501.094 158.633 501.094C157.118 501.094 155.892 502.32 155.892 503.835C155.892 505.347 157.118 506.573 158.633 506.573C160.146 506.573 161.373 505.347 161.373 503.835Z" fill="#3DBDC3" fill-opacity="0.8"/>
<path d="M181.959 410.187C181.959 408.672 180.733 407.446 179.219 407.446C177.706 407.446 176.479 408.672 176.479 410.187C176.479 411.699 177.706 412.925 179.219 412.925C180.733 412.925 181.959 411.699 181.959 410.187Z" fill="#3DBDC3" fill-opacity="0.8"/>
<path d="M376.294 422.16C376.294 420.648 375.067 419.422 373.553 419.422C372.041 419.422 370.812 420.648 370.812 422.16C370.812 423.675 372.041 424.901 373.553 424.901C375.067 424.901 376.294 423.675 376.294 422.16Z" fill="#3DBDC3" fill-opacity="0.8"/>
<path d="M364.836 574.707C364.836 573.195 363.61 571.966 362.098 571.966C360.583 571.966 359.357 573.195 359.357 574.707C359.357 576.221 360.583 577.447 362.098 577.447C363.61 577.447 364.836 576.221 364.836 574.707Z" fill="#3DBDC3" fill-opacity="0.8"/>
<path d="M511.205 698.16C511.205 696.646 509.976 695.419 508.464 695.419C506.95 695.419 505.723 696.646 505.723 698.16C505.723 699.672 506.95 700.901 508.464 700.901C509.976 700.901 511.205 699.672 511.205 698.16Z" fill="#3DBDC3" fill-opacity="0.8"/>
<path d="M650.542 731.731C650.542 730.219 649.315 728.993 647.801 728.993C646.289 728.993 645.06 730.219 645.06 731.731C645.06 733.246 646.289 734.472 647.801 734.472C649.315 734.472 650.542 733.246 650.542 731.731Z" fill="#3DBDC3" fill-opacity="0.8"/>
<path d="M511.205 698.16C511.205 696.646 509.976 695.419 508.464 695.419C506.95 695.419 505.723 696.646 505.723 698.16C505.723 699.672 506.95 700.901 508.464 700.901C509.976 700.901 511.205 699.672 511.205 698.16Z" fill="#3DBDC3" fill-opacity="0.8"/>
<path d="M586.898 539.177C586.898 537.663 585.67 536.436 584.158 536.436C582.643 536.436 581.417 537.663 581.417 539.177C581.417 540.691 582.643 541.918 584.158 541.918C585.67 541.918 586.898 540.691 586.898 539.177Z" fill="#3DBDC3" fill-opacity="0.8"/>
<path d="M364.836 574.707C364.836 573.195 363.61 571.966 362.098 571.966C360.583 571.966 359.357 573.195 359.357 574.707C359.357 576.221 360.583 577.447 362.098 577.447C363.61 577.447 364.836 576.221 364.836 574.707Z" fill="#3DBDC3" fill-opacity="0.8"/>
<path d="M557.033 401.563C557.033 400.051 555.804 398.823 554.292 398.823C552.778 398.823 551.551 400.051 551.551 401.563C551.551 403.078 552.778 404.304 554.292 404.304C555.804 404.304 557.033 403.078 557.033 401.563Z" fill="#3DBDC3" fill-opacity="0.8"/>
<path d="M376.294 422.16C376.294 420.648 375.067 419.422 373.553 419.422C372.041 419.422 370.812 420.648 370.812 422.16C370.812 423.675 372.041 424.901 373.553 424.901C375.067 424.901 376.294 423.675 376.294 422.16Z" fill="#3DBDC3" fill-opacity="0.8"/>
<path d="M281.033 336.041C281.033 334.526 279.806 333.3 278.292 333.3C276.78 333.3 275.551 334.526 275.551 336.041C275.551 337.553 276.78 338.782 278.292 338.782C279.806 338.782 281.033 337.553 281.033 336.041Z" fill="#3DBDC3" fill-opacity="0.8"/>
<path d="M181.959 410.187C181.959 408.672 180.733 407.446 179.219 407.446C177.706 407.446 176.479 408.672 176.479 410.187C176.479 411.699 177.706 412.925 179.219 412.925C180.733 412.925 181.959 411.699 181.959 410.187Z" fill="#3DBDC3" fill-opacity="0.8"/>
<path d="M271.906 264.802C271.906 263.29 270.679 262.061 269.167 262.061C267.653 262.061 266.426 263.29 266.426 264.802C266.426 266.316 267.653 267.543 269.167 267.543C270.679 267.543 271.906 266.316 271.906 264.802Z" fill="#3DBDC3" fill-opacity="0.8"/>
<path d="M281.033 336.041C281.033 334.526 279.806 333.3 278.292 333.3C276.78 333.3 275.551 334.526 275.551 336.041C275.551 337.553 276.78 338.782 278.292 338.782C279.806 338.782 281.033 337.553 281.033 336.041Z" fill="#3DBDC3" fill-opacity="0.8"/>
<path d="M445.164 322.524C445.164 321.01 443.938 319.783 442.423 319.783C440.911 319.783 439.685 321.01 439.685 322.524C439.685 324.036 440.911 325.265 442.423 325.265C443.938 325.265 445.164 324.036 445.164 322.524Z" fill="#3DBDC3" fill-opacity="0.8"/>
<path d="M376.294 422.16C376.294 420.648 375.067 419.422 373.553 419.422C372.041 419.422 370.812 420.648 370.812 422.16C370.812 423.675 372.041 424.901 373.553 424.901C375.067 424.901 376.294 423.675 376.294 422.16Z" fill="#3DBDC3" fill-opacity="0.8"/>
<path d="M366.511 248.117C366.511 246.603 365.282 245.376 363.77 245.376C362.256 245.376 361.03 246.603 361.03 248.117C361.03 249.631 362.256 250.858 363.77 250.858C365.282 250.858 366.511 249.631 366.511 248.117Z" fill="#3DBDC3" fill-opacity="0.8"/>
<path d="M281.033 336.041C281.033 334.526 279.806 333.3 278.292 333.3C276.78 333.3 275.551 334.526 275.551 336.041C275.551 337.553 276.78 338.782 278.292 338.782C279.806 338.782 281.033 337.553 281.033 336.041Z" fill="#3DBDC3" fill-opacity="0.8"/>
<path d="M363.775 200.189C363.775 198.677 362.549 197.451 361.037 197.451C359.522 197.451 358.296 198.677 358.296 200.189C358.296 201.703 359.522 202.93 361.037 202.93C362.549 202.93 363.775 201.703 363.775 200.189Z" fill="#3DBDC3" fill-opacity="0.8"/>
<path d="M271.906 264.802C271.906 263.29 270.679 262.061 269.167 262.061C267.653 262.061 266.426 263.29 266.426 264.802C266.426 266.316 267.653 267.543 269.167 267.543C270.679 267.543 271.906 266.316 271.906 264.802Z" fill="#3DBDC3" fill-opacity="0.8"/>
<path d="M366.511 248.117C366.511 246.603 365.282 245.376 363.77 245.376C362.256 245.376 361.03 246.603 361.03 248.117C361.03 249.631 362.256 250.858 363.77 250.858C365.282 250.858 366.511 249.631 366.511 248.117Z" fill="#3DBDC3" fill-opacity="0.8"/>
<path d="M363.775 200.189C363.775 198.677 362.549 197.451 361.037 197.451C359.522 197.451 358.296 198.677 358.296 200.189C358.296 201.703 359.522 202.93 361.037 202.93C362.549 202.93 363.775 201.703 363.775 200.189Z" fill="#3DBDC3" fill-opacity="0.8"/>
<path d="M469.017 162.19C469.017 160.675 467.791 159.449 466.277 159.449C464.762 159.449 463.536 160.675 463.536 162.19C463.536 163.702 464.762 164.928 466.277 164.928C467.791 164.928 469.017 163.702 469.017 162.19Z" fill="#3DBDC3" fill-opacity="0.8"/>
<path d="M366.511 248.117C366.511 246.603 365.282 245.376 363.77 245.376C362.256 245.376 361.03 246.603 361.03 248.117C361.03 249.631 362.256 250.858 363.77 250.858C365.282 250.858 366.511 249.631 366.511 248.117Z" fill="#3DBDC3" fill-opacity="0.8"/>
<path d="M445.164 322.524C445.164 321.01 443.938 319.783 442.423 319.783C440.911 319.783 439.685 321.01 439.685 322.524C439.685 324.036 440.911 325.265 442.423 325.265C443.938 325.265 445.164 324.036 445.164 322.524Z" fill="#3DBDC3" fill-opacity="0.8"/>
<path d="M586.898 539.177C586.898 537.663 585.67 536.436 584.158 536.436C582.643 536.436 581.417 537.663 581.417 539.177C581.417 540.691 582.643 541.918 584.158 541.918C585.67 541.918 586.898 540.691 586.898 539.177Z" fill="#3DBDC3" fill-opacity="0.8"/>
<path d="M650.542 731.731C650.542 730.219 649.315 728.993 647.801 728.993C646.289 728.993 645.06 730.219 645.06 731.731C645.06 733.246 646.289 734.472 647.801 734.472C649.315 734.472 650.542 733.246 650.542 731.731Z" fill="#3DBDC3" fill-opacity="0.8"/>
<path d="M650.542 731.731C650.542 730.219 649.315 728.993 647.801 728.993C646.289 728.993 645.06 730.219 645.06 731.731C645.06 733.246 646.289 734.472 647.801 734.472C649.315 734.472 650.542 733.246 650.542 731.731Z" fill="#3DBDC3" fill-opacity="0.8"/>
<path d="M650.542 731.731C650.542 730.219 649.315 728.993 647.801 728.993C646.289 728.993 645.06 730.219 645.06 731.731C645.06 733.246 646.289 734.472 647.801 734.472C649.315 734.472 650.542 733.246 650.542 731.731Z" fill="#3DBDC3" fill-opacity="0.8"/>
<path d="M650.542 731.731C650.542 730.219 649.315 728.993 647.801 728.993C646.289 728.993 645.06 730.219 645.06 731.731C645.06 733.246 646.289 734.472 647.801 734.472C649.315 734.472 650.542 733.246 650.542 731.731Z" fill="#3DBDC3" fill-opacity="0.8"/>
<path d="M586.898 539.177C586.898 537.663 585.67 536.436 584.158 536.436C582.643 536.436 581.417 537.663 581.417 539.177C581.417 540.691 582.643 541.918 584.158 541.918C585.67 541.918 586.898 540.691 586.898 539.177Z" fill="#3DBDC3" fill-opacity="0.8"/>
<path d="M647.53 337.584C647.53 336.072 646.303 334.843 644.789 334.843C643.274 334.843 642.048 336.072 642.048 337.584C642.048 339.099 643.274 340.325 644.789 340.325C646.303 340.325 647.53 339.099 647.53 337.584Z" fill="#3DBDC3" fill-opacity="0.8"/>
<path d="M557.033 401.563C557.033 400.051 555.804 398.823 554.292 398.823C552.778 398.823 551.551 400.051 551.551 401.563C551.551 403.078 552.778 404.304 554.292 404.304C555.804 404.304 557.033 403.078 557.033 401.563Z" fill="#3DBDC3" fill-opacity="0.8"/>
<path d="M586.898 539.177C586.898 537.663 585.67 536.436 584.158 536.436C582.643 536.436 581.417 537.663 581.417 539.177C581.417 540.691 582.643 541.918 584.158 541.918C585.67 541.918 586.898 540.691 586.898 539.177Z" fill="#3DBDC3" fill-opacity="0.8"/>
<path d="M647.53 337.584C647.53 336.072 646.303 334.843 644.789 334.843C643.274 334.843 642.048 336.072 642.048 337.584C642.048 339.099 643.274 340.325 644.789 340.325C646.303 340.325 647.53 339.099 647.53 337.584Z" fill="#3DBDC3" fill-opacity="0.8"/>
<path d="M445.164 322.524C445.164 321.01 443.938 319.783 442.423 319.783C440.911 319.783 439.685 321.01 439.685 322.524C439.685 324.036 440.911 325.265 442.423 325.265C443.938 325.265 445.164 324.036 445.164 322.524Z" fill="#3DBDC3" fill-opacity="0.8"/>
<path d="M557.033 401.563C557.033 400.051 555.804 398.823 554.292 398.823C552.778 398.823 551.551 400.051 551.551 401.563C551.551 403.078 552.778 404.304 554.292 404.304C555.804 404.304 557.033 403.078 557.033 401.563Z" fill="#3DBDC3" fill-opacity="0.8"/>
<path d="M469.017 162.19C469.017 160.675 467.791 159.449 466.277 159.449C464.762 159.449 463.536 160.675 463.536 162.19C463.536 163.702 464.762 164.928 466.277 164.928C467.791 164.928 469.017 163.702 469.017 162.19Z" fill="#3DBDC3" fill-opacity="0.8"/>
<path d="M445.164 322.524C445.164 321.01 443.938 319.783 442.423 319.783C440.911 319.783 439.685 321.01 439.685 322.524C439.685 324.036 440.911 325.265 442.423 325.265C443.938 325.265 445.164 324.036 445.164 322.524Z" fill="#3DBDC3" fill-opacity="0.8"/>
<path d="M579.173 201.773C579.173 200.261 577.946 199.032 576.432 199.032C574.92 199.032 573.691 200.261 573.691 201.773C573.691 203.287 574.92 204.514 576.432 204.514C577.946 204.514 579.173 203.287 579.173 201.773Z" fill="#3DBDC3" fill-opacity="0.8"/>
<path d="M592.723 158.974C592.723 157.459 591.497 156.233 589.982 156.233C588.468 156.233 587.242 157.459 587.242 158.974C587.242 160.488 588.468 161.712 589.982 161.712C591.497 161.712 592.723 160.488 592.723 158.974Z" fill="#3DBDC3" fill-opacity="0.8"/>
<path d="M469.017 162.19C469.017 160.675 467.791 159.449 466.277 159.449C464.762 159.449 463.536 160.675 463.536 162.19C463.536 163.702 464.762 164.928 466.277 164.928C467.791 164.928 469.017 163.702 469.017 162.19Z" fill="#3DBDC3" fill-opacity="0.8"/>
<path d="M579.173 201.773C579.173 200.261 577.946 199.032 576.432 199.032C574.92 199.032 573.691 200.261 573.691 201.773C573.691 203.287 574.92 204.514 576.432 204.514C577.946 204.514 579.173 203.287 579.173 201.773Z" fill="#3DBDC3" fill-opacity="0.8"/>
<path d="M647.53 337.584C647.53 336.072 646.303 334.843 644.789 334.843C643.274 334.843 642.048 336.072 642.048 337.584C642.048 339.099 643.274 340.325 644.789 340.325C646.303 340.325 647.53 339.099 647.53 337.584Z" fill="#3DBDC3" fill-opacity="0.8"/>
<path d="M686.35 180.3C686.35 178.786 685.123 177.557 683.609 177.557C682.094 177.557 680.868 178.786 680.868 180.3C680.868 181.812 682.094 183.039 683.609 183.039C685.123 183.039 686.35 181.812 686.35 180.3Z" fill="#3DBDC3" fill-opacity="0.8"/>
<path d="M579.173 201.773C579.173 200.261 577.946 199.032 576.432 199.032C574.92 199.032 573.691 200.261 573.691 201.773C573.691 203.287 574.92 204.514 576.432 204.514C577.946 204.514 579.173 203.287 579.173 201.773Z" fill="#3DBDC3" fill-opacity="0.8"/>
<path d="M686.35 180.3C686.35 178.786 685.123 177.557 683.609 177.557C682.094 177.557 680.868 178.786 680.868 180.3C680.868 181.812 682.094 183.039 683.609 183.039C685.123 183.039 686.35 181.812 686.35 180.3Z" fill="#3DBDC3" fill-opacity="0.8"/>
<path d="M647.53 337.584C647.53 336.072 646.303 334.843 644.789 334.843C643.274 334.843 642.048 336.072 642.048 337.584C642.048 339.099 643.274 340.325 644.789 340.325C646.303 340.325 647.53 339.099 647.53 337.584Z" fill="#3DBDC3" fill-opacity="0.8"/>
<path d="M364.147 185.333L392.542 185.489L413.921 165.888L364.147 185.333ZM437.057 185.734L538.937 186.295L520.548 144.266L451.74 153.574L437.057 185.734ZM525.547 145.349L616.325 186.578L625.75 169.123L525.547 145.349ZM539.988 186.3L614.287 186.708L521.784 144.696L539.988 186.3ZM627.19 168.478L728.722 192.566L634.426 155.086L627.19 168.478ZM617.311 186.768L729.461 193.728L626.719 169.354L617.311 186.768ZM364.049 186.293L382.994 194.244L391.5 186.444L364.049 186.293ZM362.196 186.554L364.752 210.97L382.214 194.959L362.196 186.554ZM383.966 194.652L424.217 211.548L435.566 186.686L392.914 186.451L383.966 194.652ZM619.752 187.882L694.418 215.527L733.294 194.928L619.752 187.882ZM695.626 215.974L735.286 230.657L734.558 195.343L695.626 215.974ZM736.253 231.017L824.438 263.666L735.526 195.542L736.253 231.017ZM271.351 248.911L296.225 265.543L359.134 188.114L271.351 248.911ZM297.026 266.081L301.435 269.028L363.871 211.778L361.277 186.998L297.026 266.081ZM736.274 232.046L737.038 269.069L824.885 264.854L736.274 232.046ZM540.408 187.262L579.187 275.897L615.816 187.675L540.408 187.262ZM616.8 187.81L580.154 276.072L693.281 216.13L616.8 187.81ZM425.102 211.92L578.278 276.214L539.357 187.255L436.62 186.691L425.102 211.92ZM694.488 216.576L581.323 276.538L736.078 269.114L735.307 231.689L694.488 216.576ZM296.419 266.827L274.764 293.482L300.706 269.695L296.419 266.827ZM582.653 277.435L736.992 313.514L736.099 270.074L582.653 277.435ZM364.877 212.158L375.895 317.4L423.818 212.422L383.189 195.367L364.877 212.158ZM302.256 269.575L375.017 318.233L363.996 212.966L302.256 269.575ZM424.704 212.794L376.43 318.538L577.586 276.962L424.704 212.794ZM270.742 249.655L244.591 321.146L269.914 297.926L295.618 266.292L270.742 249.655ZM737.957 313.742L793.75 326.784L826.435 265.742L737.057 270.029L737.957 313.742ZM207.563 324.406L230.255 334.294L243.053 322.555L269.114 251.309L207.563 324.406ZM243.874 323.105L239.303 335.604L265.764 303.036L243.874 323.105ZM794.717 327.01L835.402 336.521L826.963 266.789L794.717 327.01ZM231.216 334.711L237.592 337.49L242.338 324.516L231.216 334.711ZM270.614 298.589L239.006 337.493L374.282 318.898L301.526 270.245L270.614 298.589ZM377.556 319.286L467.472 346.262L576.667 278.134L377.556 319.286ZM836.398 336.754L886.764 348.528L827.957 267.012L836.398 336.754ZM207.201 325.294L204.276 358.114L229.48 335.002L207.201 325.294ZM204.149 359.532L203.77 363.778L236.931 338.249L230.443 335.422L204.149 359.532ZM377.174 320.174L426.034 372.115L466.387 346.939L377.174 320.174ZM836.52 337.769L840.89 373.889L886.553 349.464L836.52 337.769ZM468.696 346.63L561.336 374.424L578.537 278.1L468.696 346.63ZM203.099 360.494L177.24 384.204L202.735 364.574L203.099 360.494ZM206.106 326.738L170.626 388.966L203.226 359.076L206.106 326.738ZM169.772 391.164L199.707 398.554L202.619 365.875L169.772 391.164ZM737.978 314.731L740.282 426.638L793.279 327.66L737.978 314.731ZM794.249 327.886L741.005 427.32L839.983 374.374L835.524 337.536L794.249 327.886ZM580.826 277.994L739.337 427.346L737.014 314.506L580.826 277.994ZM562.26 374.7L738.034 427.438L579.516 278.078L562.26 374.7ZM375.77 320.081L332.575 430.426L425.203 372.634L375.77 320.081ZM200.649 398.786L330.038 430.721L237.826 338.77L203.654 365.078L200.649 398.786ZM238.892 338.477L331.421 430.742L374.854 319.788L238.892 338.477ZM889.471 354.54L908.885 449.107L923.818 441.077L889.471 354.54ZM741.065 428.369L850.759 463.426L840.106 375.398L741.065 428.369ZM851.765 463.75L856.522 465.269L887.155 350.232L841.015 374.911L851.765 463.75ZM857.436 465.559L870.518 469.742L908.002 449.585L887.844 351.379L857.436 465.559ZM851.892 464.796L853.378 477.07L856.272 466.198L851.892 464.796ZM857.189 466.49L853.951 478.651L869.345 470.374L857.189 466.49ZM747.684 431.491L852.622 478.812L850.886 464.474L747.684 431.491ZM871.788 470.148L915.06 483.979L908.203 450.564L871.788 470.148ZM426.703 372.83L540.096 493.375L561.166 375.374L467.611 347.306L426.703 372.83ZM332.753 431.446L538.824 493.426L425.873 373.349L332.753 431.446ZM562.092 375.653L541.013 493.692L738.245 428.501L562.092 375.653ZM169.309 392.04L190.751 499.046L199.621 399.521L169.309 392.04ZM200.564 399.754L191.488 501.583L330.223 431.755L200.564 399.754ZM147.169 488.042L190.303 501.698L168.66 393.686L147.169 488.042ZM740.791 429.434L782.678 523.402L852.187 479.671L740.791 429.434ZM332.796 432.461L398.076 524.796L538.483 494.326L332.796 432.461ZM331.98 432.97L323.098 552.314L397.114 525.098L331.98 432.97ZM147.353 489.106L170.254 558.53L190.314 502.706L147.353 489.106ZM398.777 525.626L433.267 563.911L537.965 495.42L398.777 525.626ZM739.975 429.962L705.809 571.766L781.858 523.918L739.975 429.962ZM541.685 494.482L704.738 572.114L739.171 429.199L541.685 494.482ZM916.332 485.393L934.202 572.453L933.252 490.8L916.332 485.393ZM853.946 479.746L933.885 575.688L915.283 485.057L870.614 470.779L853.946 479.746ZM191.712 502.548L258.091 576.216L322.106 552.677L331.058 432.41L191.712 502.548ZM398.513 526.766L404.863 582.492L432.454 564.444L398.513 526.766ZM853.918 481.212L869.218 586.927L933.828 577.118L853.918 481.212ZM783.074 524.287L814.337 594.413L852.319 480.722L783.074 524.287ZM706.327 572.575L813.578 595.07L782.254 524.803L706.327 572.575ZM853.015 481.67L815.102 595.142L868.267 587.071L853.015 481.67ZM170.741 560.009L184.958 603.106L257.119 576.571L191.114 503.318L170.741 560.009ZM147.168 491.609L150.347 613.927L169.726 559.997L147.168 491.609ZM170.215 561.475L150.732 615.689L184.056 603.439L170.215 561.475ZM151.864 616.296L190.178 621.998L184.356 604.351L151.864 616.296ZM815.789 596.009L874.678 631.363L868.404 588.022L815.789 596.009ZM397.534 526.639L317.827 639.449L403.963 583.08L397.534 526.639ZM323.018 553.363L316.606 639.509L396.586 526.315L323.018 553.363ZM258.782 576.984L315.605 640.046L322.03 553.73L258.782 576.984ZM191.242 622.154L314.748 640.531L257.813 577.342L185.258 604.018L191.242 622.154ZM875.741 632.004L911.438 653.436L934.063 578.052L869.352 587.878L875.741 632.004ZM912.286 653.947L918.482 657.665L932.371 587.028L912.286 653.947ZM814.622 596.429L776.582 684.665L879.458 664.418L874.853 632.592L814.622 596.429ZM151.114 617.155L212.893 690.854L190.515 623.018L151.114 617.155ZM705.607 573.406L717.682 696.259L775.44 684.89L813.727 596.083L705.607 573.406ZM316.86 641.213L418.603 711.538L404.086 584.15L316.86 641.213ZM316.56 642.173L322.762 717.473L417.775 712.133L316.56 642.173ZM214.56 692.844L238.955 721.946L315.017 641.542L191.578 623.177L214.56 692.844ZM315.607 642.295L240.11 722.122L321.804 717.528L315.607 642.295ZM433.918 564.634L576.468 722.87L540.043 495.206L433.918 564.634ZM215.373 695.309L224.511 723.01L237.952 722.244L215.373 695.309ZM541.018 495.226L577.51 723.288L704.297 572.966L541.018 495.226ZM704.7 573.979L578.448 723.662L716.736 696.446L704.7 573.979ZM419.633 712.082L576.043 723.833L433.104 565.164L404.986 583.56L419.633 712.082ZM151.304 618.876L189.624 724.999L223.519 723.065L213.707 693.319L151.304 618.876ZM875.918 633.23L880.476 664.733L889.867 725.292L911.15 654.384L875.918 633.23ZM879.809 666.694L851.189 743.659L889.186 727.166L879.809 666.694ZM190.858 725.89L232.896 751.495L223.829 724.01L190.858 725.89ZM234.162 752.263L244.81 758.75L238.535 723.17L224.822 723.953L234.162 752.263ZM717.775 697.219L727.495 796.102L774.979 685.958L717.775 697.219ZM776.122 685.735L728.122 797.076L849.967 744.19L879.25 665.438L776.122 685.735ZM578.688 724.596L726.638 797.189L716.832 697.406L578.688 724.596ZM577.918 725.285L597.074 801.845L725.261 797.585L577.918 725.285ZM576.943 725.345L498.18 805.13L596.093 801.876L576.943 725.345ZM419.65 713.05L413.801 807.936L496.786 805.176L576.13 724.8L419.65 713.05ZM245.902 759.418L326.609 808.572L239.665 724.049L245.902 759.418ZM240.05 723.084L329.417 809.962L321.883 718.483L240.05 723.084ZM322.841 718.43L330.389 810.055L418.061 713.076L322.841 718.43ZM418.637 713.87L331.114 810.682L412.838 807.967L418.637 713.87ZM234.625 753.67L254.587 814.183L245.033 760.01L234.625 753.67ZM850.726 744.91L824.743 814.783L888.274 728.611L850.726 744.91ZM728.782 797.837L822.794 817.262L849.504 745.44L728.782 797.837ZM191.011 727.106L254.746 817.728L233.361 752.902L191.011 727.106ZM246.125 760.675L256.608 820.118L328.582 810.898L246.125 760.675ZM727.661 798.586L726.607 830.227L820.238 817.716L727.661 798.586ZM726.67 799.474L700.277 833.746L725.642 830.354L726.67 799.474ZM597.314 802.798L608.141 846.057L698.928 833.926L726.199 798.514L597.314 802.798ZM258.636 820.826L357.036 848.126L329.784 811.711L258.636 820.826ZM331.721 811.625L409.886 855.886L412.778 808.93L331.721 811.625ZM358.548 848.546L409.466 862.673L409.819 856.951L331.757 812.748L358.548 848.546ZM410.412 862.937L429.965 868.358L410.75 857.477L410.412 862.937ZM497.198 806.124L434.928 869.206L607.181 846.185L596.333 802.831L497.198 806.124ZM410.815 856.414L433.517 869.268L495.804 806.17L413.743 808.898L410.815 856.414ZM726.574 831.199L725.215 871.994L820.67 818.626L726.574 831.199ZM725.177 873.115L724.594 890.606L816.924 821.82L725.177 873.115ZM259.33 822.014L404.894 912.074L357.977 849.385L259.33 822.014ZM359.489 849.805L406.399 912.482L409.406 863.652L359.489 849.805ZM699.446 834.826L629.695 925.397L724.236 872.542L725.609 831.329L699.446 834.826ZM608.374 846.996L628.114 925.879L698.095 835.006L608.374 846.996ZM435.902 870.043L627.218 926.26L607.416 847.123L435.902 870.043ZM407.299 913.437L502.178 934.294L433.358 870.297L410.352 863.916L407.299 913.437ZM503.794 935.621L503.69 935.609L406.702 914.287L406.615 914.26L406.536 914.22L255.97 821.064L255.89 821.004H255.888L255.881 820.997L255.876 820.992L255.874 820.99L255.869 820.985L255.866 820.98H255.864L255.816 820.92L188.905 725.782L188.853 725.688L188.841 725.657L149.484 616.661L149.483 616.656H149.481L149.48 616.651L149.475 616.639L149.474 616.634L149.473 616.632L149.471 616.63V616.627L149.47 616.625V616.622L149.469 616.62V616.618L149.467 616.615L149.453 616.498L146.124 488.39L146.128 488.299V488.294L146.136 488.254L168.22 391.296L168.273 391.154L206.364 324.35L206.378 324.326L206.381 324.322L206.382 324.319H206.384L206.385 324.317L206.416 324.276L270.132 248.609L270.233 248.52L361.354 185.41L361.411 185.374L361.416 185.371L361.466 185.35L415.963 164.057L416.546 164.251L416.462 164.858L393.953 185.498L436.003 185.729L450.974 152.935L451.349 152.657L520.771 143.266L520.855 143.263L520.961 143.275L626.225 168.25L633.782 154.253C633.9 154.039 634.15 153.948 634.382 154.034L735.202 194.11L735.228 194.119L735.23 194.122L735.326 194.182L827.544 264.835L827.614 264.9L827.616 264.902L827.65 264.946L888.288 349.001L888.324 349.054L888.326 349.056L888.353 349.118L924.866 441.12C924.958 441.348 924.864 441.605 924.65 441.72L909.084 450.091L916.111 484.313L933.874 489.991L934.21 490.442L935.222 577.45L935.22 577.512L935.21 577.565L919.294 658.522L919.018 658.867L918.576 658.843L912 654.893L890.179 727.594L890.165 727.634V727.637L890.098 727.752L823.495 818.09L823.418 818.177L823.416 818.179L823.414 818.182L823.409 818.184V818.186H823.406L823.404 818.189L823.402 818.191L823.399 818.194H823.397L823.382 818.206L724.366 891.969L723.857 892.011L723.6 891.569L724.198 873.663L628.123 927.377L627.746 927.417L435.418 870.9L504.12 934.788L504.218 935.362L503.794 935.621Z" fill="#3D7AC3" fill-opacity="0.5"/>
<path d="M367.44 185.801C367.44 189.007 364.841 191.607 361.634 191.607C358.426 191.607 355.826 189.007 355.826 185.801C355.826 182.592 358.426 179.993 361.634 179.993C364.841 179.993 367.44 182.592 367.44 185.801Z" fill="#3D7AC3" fill-opacity="0.5"/>
<path d="M420.554 164.506C420.554 166.947 418.577 168.922 416.138 168.922C413.698 168.922 411.72 166.947 411.72 164.506C411.72 162.067 413.698 160.09 416.138 160.09C418.577 160.09 420.554 162.067 420.554 164.506Z" fill="#3D7AC3" fill-opacity="0.5"/>
<path d="M174.498 391.392C174.498 394.599 171.897 397.198 168.691 397.198C165.484 397.198 162.884 394.599 162.884 391.392C162.884 388.186 165.484 385.584 168.691 385.584C171.897 385.584 174.498 388.186 174.498 391.392Z" fill="#3D7AC3" fill-opacity="0.5"/>
<path d="M152.409 488.367C152.409 491.573 149.81 494.172 146.603 494.172C143.395 494.172 140.796 491.573 140.796 488.367C140.796 485.16 143.395 482.558 146.603 482.558C149.81 482.558 152.409 485.16 152.409 488.367Z" fill="#3D7AC3" fill-opacity="0.5"/>
<path d="M710.873 572.801C710.873 576.007 708.274 578.607 705.067 578.607C701.858 578.607 699.259 576.007 699.259 572.801C699.259 569.592 701.858 566.993 705.067 566.993C708.274 566.993 710.873 569.592 710.873 572.801Z" fill="#3D7AC3" fill-opacity="0.5"/>
<path d="M583.008 724.399C583.008 727.608 580.406 730.207 577.2 730.207C573.994 730.207 571.392 727.608 571.392 724.399C571.392 721.193 573.994 718.594 577.2 718.594C580.406 718.594 583.008 721.193 583.008 724.399Z" fill="#3D7AC3" fill-opacity="0.5"/>
<path d="M583.008 724.399C583.008 727.608 580.406 730.207 577.2 730.207C573.994 730.207 571.392 727.608 571.392 724.399C571.392 721.193 573.994 718.594 577.2 718.594C580.406 718.594 583.008 721.193 583.008 724.399Z" fill="#3D7AC3" fill-opacity="0.5"/>
<path d="M425.006 712.534C425.006 715.74 422.407 718.339 419.201 718.339C415.992 718.339 413.393 715.74 413.393 712.534C413.393 709.327 415.992 706.726 419.201 706.726C422.407 706.726 425.006 709.327 425.006 712.534Z" fill="#3D7AC3" fill-opacity="0.5"/>
<path d="M583.008 724.399C583.008 727.608 580.406 730.207 577.2 730.207C573.994 730.207 571.392 727.608 571.392 724.399C571.392 721.193 573.994 718.594 577.2 718.594C580.406 718.594 583.008 721.193 583.008 724.399Z" fill="#3D7AC3" fill-opacity="0.5"/>
<path d="M710.873 572.801C710.873 576.007 708.274 578.607 705.067 578.607C701.858 578.607 699.259 576.007 699.259 572.801C699.259 569.592 701.858 566.993 705.067 566.993C708.274 566.993 710.873 569.592 710.873 572.801Z" fill="#3D7AC3" fill-opacity="0.5"/>
<path d="M714.324 572.801C714.324 577.913 710.179 582.058 705.067 582.058C699.955 582.058 695.81 577.913 695.81 572.801C695.81 567.689 699.955 563.544 705.067 563.544C710.179 563.544 714.324 567.689 714.324 572.801Z" fill="#3D7AC3" fill-opacity="0.5"/>
<path d="M546.206 494.4C546.206 497.607 543.607 500.208 540.401 500.208C537.192 500.208 534.593 497.607 534.593 494.4C534.593 491.194 537.192 488.592 540.401 488.592C543.607 488.592 546.206 491.194 546.206 494.4Z" fill="#3D7AC3" fill-opacity="0.5"/>
<path d="M586.32 724.399C586.32 729.437 582.238 733.519 577.2 733.519C572.162 733.519 568.08 729.437 568.08 724.399C568.08 719.364 572.162 715.279 577.2 715.279C582.238 715.279 586.32 719.364 586.32 724.399Z" fill="#3D7AC3" fill-opacity="0.5"/>
<path d="M403.673 525.334C403.673 528.54 401.074 531.139 397.867 531.139C394.661 531.139 392.059 528.54 392.059 525.334C392.059 522.127 394.661 519.526 397.867 519.526C401.074 519.526 403.673 522.127 403.673 525.334Z" fill="#3D7AC3" fill-opacity="0.5"/>
<path d="M425.006 712.534C425.006 715.74 422.407 718.339 419.201 718.339C415.992 718.339 413.393 715.74 413.393 712.534C413.393 709.327 415.992 706.726 419.201 706.726C422.407 706.726 425.006 709.327 425.006 712.534Z" fill="#3D7AC3" fill-opacity="0.5"/>
<path d="M321.806 641.201C321.806 644.407 319.207 647.006 316.001 647.006C312.792 647.006 310.193 644.407 310.193 641.201C310.193 637.992 312.792 635.393 316.001 635.393C319.207 635.393 321.806 637.992 321.806 641.201Z" fill="#3D7AC3" fill-opacity="0.5"/>
<path d="M425.006 712.534C425.006 715.74 422.407 718.339 419.201 718.339C415.992 718.339 413.393 715.74 413.393 712.534C413.393 709.327 415.992 706.726 419.201 706.726C422.407 706.726 425.006 709.327 425.006 712.534Z" fill="#3D7AC3" fill-opacity="0.5"/>
<path d="M244.74 722.666C244.74 725.873 242.141 728.474 238.933 728.474C235.726 728.474 233.126 725.873 233.126 722.666C233.126 719.46 235.726 716.861 238.933 716.861C242.141 716.861 244.74 719.46 244.74 722.666Z" fill="#3D7AC3" fill-opacity="0.5"/>
<path d="M195.099 725.498C195.099 728.705 192.5 731.304 189.293 731.304C186.085 731.304 183.486 728.705 183.486 725.498C183.486 722.292 186.085 719.69 189.293 719.69C192.5 719.69 195.099 722.292 195.099 725.498Z" fill="#3D7AC3" fill-opacity="0.5"/>
<path d="M244.74 722.666C244.74 725.873 242.141 728.474 238.933 728.474C235.726 728.474 233.126 725.873 233.126 722.666C233.126 719.46 235.726 716.861 238.933 716.861C242.141 716.861 244.74 719.46 244.74 722.666Z" fill="#3D7AC3" fill-opacity="0.5"/>
<path d="M195.099 725.498C195.099 728.705 192.5 731.304 189.293 731.304C186.085 731.304 183.486 728.705 183.486 725.498C183.486 722.292 186.085 719.69 189.293 719.69C192.5 719.69 195.099 722.292 195.099 725.498Z" fill="#3D7AC3" fill-opacity="0.5"/>
<path d="M155.74 616.495C155.74 619.702 153.14 622.301 149.934 622.301C146.726 622.301 144.126 619.702 144.126 616.495C144.126 613.286 146.726 610.687 149.934 610.687C153.14 610.687 155.74 613.286 155.74 616.495Z" fill="#3D7AC3" fill-opacity="0.5"/>
<path d="M246.538 722.666C246.538 726.866 243.132 730.272 238.933 730.272C234.734 730.272 231.329 726.866 231.329 722.666C231.329 718.466 234.734 715.063 238.933 715.063C243.132 715.063 246.538 718.466 246.538 722.666Z" fill="#3D7AC3" fill-opacity="0.5"/>
<path d="M321.806 641.201C321.806 644.407 319.207 647.006 316.001 647.006C312.792 647.006 310.193 644.407 310.193 641.201C310.193 637.992 312.792 635.393 316.001 635.393C319.207 635.393 321.806 637.992 321.806 641.201Z" fill="#3D7AC3" fill-opacity="0.5"/>
<path d="M546.206 494.4C546.206 497.607 543.607 500.208 540.401 500.208C537.192 500.208 534.593 497.607 534.593 494.4C534.593 491.194 537.192 488.592 540.401 488.592C543.607 488.592 546.206 491.194 546.206 494.4Z" fill="#3D7AC3" fill-opacity="0.5"/>
<path d="M585.007 277.121C585.007 280.327 582.408 282.927 579.199 282.927C575.993 282.927 573.394 280.327 573.394 277.121C573.394 273.912 575.993 271.313 579.199 271.313C582.408 271.313 585.007 273.912 585.007 277.121Z" fill="#3D7AC3" fill-opacity="0.5"/>
<path d="M740.83 194.556C740.83 197.763 738.231 200.362 735.024 200.362C731.815 200.362 729.216 197.763 729.216 194.556C729.216 191.35 731.815 188.748 735.024 188.748C738.231 188.748 740.83 191.35 740.83 194.556Z" fill="#3D7AC3" fill-opacity="0.5"/>
<path d="M622.339 187.2C622.339 190.406 619.74 193.008 616.534 193.008C613.327 193.008 610.726 190.406 610.726 187.2C610.726 183.994 613.327 181.392 616.534 181.392C619.74 181.392 622.339 183.994 622.339 187.2Z" fill="#3D7AC3" fill-opacity="0.5"/>
<path d="M640.01 154.481C640.01 157.69 637.411 160.289 634.205 160.289C630.996 160.289 628.397 157.69 628.397 154.481C628.397 151.275 630.996 148.675 634.205 148.675C637.411 148.675 640.01 151.275 640.01 154.481Z" fill="#3D7AC3" fill-opacity="0.5"/>
<path d="M698.081 216.087C698.081 218.019 696.513 219.586 694.581 219.586C692.649 219.586 691.082 218.019 691.082 216.087C691.082 214.155 692.649 212.587 694.581 212.587C696.513 212.587 698.081 214.155 698.081 216.087Z" fill="#3D7AC3" fill-opacity="0.5"/>
<path d="M720.972 697.601C720.972 699.461 719.462 700.971 717.6 700.971C715.738 700.971 714.228 699.461 714.228 697.601C714.228 695.739 715.738 694.229 717.6 694.229C719.462 694.229 720.972 695.739 720.972 697.601Z" fill="#3D7AC3" fill-opacity="0.5"/>
<path d="M227.371 723.6C227.371 725.463 225.862 726.972 224 726.972C222.138 726.972 220.629 725.463 220.629 723.6C220.629 721.738 222.138 720.228 224 720.228C225.862 720.228 227.371 721.738 227.371 723.6Z" fill="#3D7AC3" fill-opacity="0.5"/>
<path d="M217.371 694.001C217.371 695.861 215.862 697.371 214 697.371C212.138 697.371 210.629 695.861 210.629 694.001C210.629 692.139 212.138 690.629 214 690.629C215.862 690.629 217.371 692.139 217.371 694.001Z" fill="#3D7AC3" fill-opacity="0.5"/>
<path d="M194.171 622.8C194.171 624.663 192.662 626.172 190.8 626.172C188.938 626.172 187.429 624.663 187.429 622.8C187.429 620.938 188.938 619.428 190.8 619.428C192.662 619.428 194.171 620.938 194.171 622.8Z" fill="#3D7AC3" fill-opacity="0.5"/>
<path d="M188.171 603.199C188.171 605.062 186.662 606.571 184.8 606.571C182.938 606.571 181.429 605.062 181.429 603.199C181.429 601.339 182.938 599.83 184.8 599.83C186.662 599.83 188.171 601.339 188.171 603.199Z" fill="#3D7AC3" fill-opacity="0.5"/>
<path d="M325.37 718.001C325.37 719.861 323.861 721.37 322.001 721.37C320.138 721.37 318.629 719.861 318.629 718.001C318.629 716.139 320.138 714.629 322.001 714.629C323.861 714.629 325.37 716.139 325.37 718.001Z" fill="#3D7AC3" fill-opacity="0.5"/>
<path d="M261.372 576.799C261.372 578.662 259.862 580.171 258 580.171C256.138 580.171 254.628 578.662 254.628 576.799C254.628 574.939 256.138 573.43 258 573.43C259.862 573.43 261.372 574.939 261.372 576.799Z" fill="#3D7AC3" fill-opacity="0.5"/>
<path d="M174.171 559.2C174.171 561.063 172.662 562.572 170.8 562.572C168.938 562.572 167.429 561.063 167.429 559.2C167.429 557.338 168.938 555.828 170.8 555.828C172.662 555.828 174.171 557.338 174.171 559.2Z" fill="#3D7AC3" fill-opacity="0.5"/>
<path d="M204.12 399.699C204.12 401.561 202.611 403.068 200.749 403.068C198.888 403.068 197.378 401.561 197.378 399.699C197.378 397.836 198.888 396.327 200.749 396.327C202.611 396.327 204.12 397.836 204.12 399.699Z" fill="#3D7AC3" fill-opacity="0.5"/>
<path d="M274.572 297.6C274.572 299.463 273.062 300.972 271.2 300.972C269.338 300.972 267.828 299.463 267.828 297.6C267.828 295.738 269.338 294.228 271.2 294.228C273.062 294.228 274.572 295.738 274.572 297.6Z" fill="#3D7AC3" fill-opacity="0.5"/>
<path d="M206.971 359.201C206.971 361.061 205.462 362.571 203.6 362.571C201.738 362.571 200.229 361.061 200.229 359.201C200.229 357.339 201.738 355.829 203.6 355.829C205.462 355.829 206.971 357.339 206.971 359.201Z" fill="#3D7AC3" fill-opacity="0.5"/>
<path d="M304.572 270C304.572 271.863 303.062 273.372 301.2 273.372C299.338 273.372 297.828 271.863 297.828 270C297.828 268.138 299.338 266.628 301.2 266.628C303.062 266.628 304.572 268.138 304.572 270Z" fill="#3D7AC3" fill-opacity="0.5"/>
<path d="M246.972 323.201C246.972 325.061 245.462 326.571 243.6 326.571C241.738 326.571 240.228 325.061 240.228 323.201C240.228 321.339 241.738 319.829 243.6 319.829C245.462 319.829 246.972 321.339 246.972 323.201Z" fill="#3D7AC3" fill-opacity="0.5"/>
<path d="M427.771 212.17C427.771 214.032 426.262 215.542 424.399 215.542C422.539 215.542 421.03 214.032 421.03 212.17C421.03 210.31 422.539 208.8 424.399 208.8C426.262 208.8 427.771 210.31 427.771 212.17Z" fill="#3D7AC3" fill-opacity="0.5"/>
<path d="M439.771 186C439.771 187.863 438.262 189.37 436.399 189.37C434.539 189.37 433.03 187.863 433.03 186C433.03 184.138 434.539 182.628 436.399 182.628C438.262 182.628 439.771 184.138 439.771 186Z" fill="#3D7AC3" fill-opacity="0.5"/>
<path d="M386.57 195.6C386.57 197.463 385.061 198.97 383.201 198.97C381.338 198.97 379.829 197.463 379.829 195.6C379.829 193.738 381.338 192.228 383.201 192.228C385.061 192.228 386.57 193.738 386.57 195.6Z" fill="#3D7AC3" fill-opacity="0.5"/>
<path d="M368.172 212.4C368.172 214.263 366.662 215.77 364.8 215.77C362.938 215.77 361.428 214.263 361.428 212.4C361.428 210.538 362.938 209.028 364.8 209.028C366.662 209.028 368.172 210.538 368.172 212.4Z" fill="#3D7AC3" fill-opacity="0.5"/>
<path d="M396.972 185.599C396.972 187.462 395.462 188.971 393.6 188.971C391.738 188.971 390.228 187.462 390.228 185.599C390.228 183.737 391.738 182.23 393.6 182.23C395.462 182.23 396.972 183.737 396.972 185.599Z" fill="#3D7AC3" fill-opacity="0.5"/>
<path d="M542.971 186.401C542.971 188.261 541.462 189.771 539.599 189.771C537.739 189.771 536.23 188.261 536.23 186.401C536.23 184.538 537.739 183.029 539.599 183.029C541.462 183.029 542.971 184.538 542.971 186.401Z" fill="#3D7AC3" fill-opacity="0.5"/>
<path d="M470.57 347.201C470.57 349.061 469.061 350.57 467.201 350.57C465.338 350.57 463.829 349.061 463.829 347.201C463.829 345.338 465.338 343.829 467.201 343.829C469.061 343.829 470.57 345.338 470.57 347.201Z" fill="#3D7AC3" fill-opacity="0.5"/>
<path d="M429.372 372.799C429.372 374.662 427.862 376.171 426 376.171C424.138 376.171 422.628 374.662 422.628 372.799C422.628 370.939 424.138 369.43 426 369.43C427.862 369.43 429.372 370.939 429.372 372.799Z" fill="#3D7AC3" fill-opacity="0.5"/>
<path d="M564.972 374.801C564.972 376.661 563.462 378.171 561.6 378.171C559.738 378.171 558.228 376.661 558.228 374.801C558.228 372.939 559.738 371.429 561.6 371.429C563.462 371.429 564.972 372.939 564.972 374.801Z" fill="#3D7AC3" fill-opacity="0.5"/>
<path d="M629.772 168.799C629.772 170.662 628.262 172.171 626.4 172.171C624.538 172.171 623.028 170.662 623.028 168.799C623.028 166.937 624.538 165.43 626.4 165.43C628.262 165.43 629.772 166.937 629.772 168.799Z" fill="#3D7AC3" fill-opacity="0.5"/>
<path d="M740.83 194.556C740.83 197.763 738.231 200.362 735.024 200.362C731.815 200.362 729.216 197.763 729.216 194.556C729.216 191.35 731.815 188.748 735.024 188.748C738.231 188.748 740.83 191.35 740.83 194.556Z" fill="#3D7AC3" fill-opacity="0.5"/>
<path d="M526.649 143.741C526.649 146.947 524.05 149.547 520.843 149.547C517.637 149.547 515.035 146.947 515.035 143.741C515.035 140.535 517.637 137.933 520.843 137.933C524.05 137.933 526.649 140.535 526.649 143.741Z" fill="#3D7AC3" fill-opacity="0.5"/>
<path d="M622.339 187.2C622.339 190.406 619.74 193.008 616.534 193.008C613.327 193.008 610.726 190.406 610.726 187.2C610.726 183.994 613.327 181.392 616.534 181.392C619.74 181.392 622.339 183.994 622.339 187.2Z" fill="#3D7AC3" fill-opacity="0.5"/>
<path d="M743.83 194.556C743.83 199.419 739.887 203.362 735.024 203.362C730.159 203.362 726.216 199.419 726.216 194.556C726.216 189.691 730.159 185.748 735.024 185.748C739.887 185.748 743.83 189.691 743.83 194.556Z" fill="#3D7AC3" fill-opacity="0.5"/>
<path d="M585.007 277.121C585.007 280.327 582.408 282.927 579.199 282.927C575.993 282.927 573.394 280.327 573.394 277.121C573.394 273.912 575.993 271.313 579.199 271.313C582.408 271.313 585.007 273.912 585.007 277.121Z" fill="#3D7AC3" fill-opacity="0.5"/>
<path d="M760.116 428.479C760.116 439.678 751.039 448.757 739.841 448.757C728.642 448.757 719.563 439.678 719.563 428.479C719.563 417.281 728.642 408.204 739.841 408.204C751.039 408.204 760.116 417.281 760.116 428.479Z" fill="#3D7AC3" fill-opacity="0.5"/>
<path d="M381.408 319.2C381.408 322.407 378.806 325.008 375.6 325.008C372.394 325.008 369.792 322.407 369.792 319.2C369.792 315.994 372.394 313.392 375.6 313.392C378.806 313.392 381.408 315.994 381.408 319.2Z" fill="#3D7AC3" fill-opacity="0.5"/>
<path d="M546.206 494.4C546.206 497.607 543.607 500.208 540.401 500.208C537.192 500.208 534.593 497.607 534.593 494.4C534.593 491.194 537.192 488.592 540.401 488.592C543.607 488.592 546.206 491.194 546.206 494.4Z" fill="#3D7AC3" fill-opacity="0.5"/>
<path d="M585.007 277.121C585.007 280.327 582.408 282.927 579.199 282.927C575.993 282.927 573.394 280.327 573.394 277.121C573.394 273.912 575.993 271.313 579.199 271.313C582.408 271.313 585.007 273.912 585.007 277.121Z" fill="#3D7AC3" fill-opacity="0.5"/>
<path d="M337.406 431.599C337.406 434.808 334.807 437.407 331.601 437.407C328.392 437.407 325.793 434.808 325.793 431.599C325.793 428.393 328.392 425.794 331.601 425.794C334.807 425.794 337.406 428.393 337.406 431.599Z" fill="#3D7AC3" fill-opacity="0.5"/>
<path d="M403.673 525.334C403.673 528.54 401.074 531.139 397.867 531.139C394.661 531.139 392.059 528.54 392.059 525.334C392.059 522.127 394.661 519.526 397.867 519.526C401.074 519.526 403.673 522.127 403.673 525.334Z" fill="#3D7AC3" fill-opacity="0.5"/>
<path d="M556.001 494.4C556.001 503.016 549.017 510 540.401 510C531.785 510 524.798 503.016 524.798 494.4C524.798 485.784 531.785 478.8 540.401 478.8C549.017 478.8 556.001 485.784 556.001 494.4Z" fill="#3D7AC3" fill-opacity="0.5"/>
<path d="M337.406 431.599C337.406 434.808 334.807 437.407 331.601 437.407C328.392 437.407 325.793 434.808 325.793 431.599C325.793 428.393 328.392 425.794 331.601 425.794C334.807 425.794 337.406 428.393 337.406 431.599Z" fill="#3D7AC3" fill-opacity="0.5"/>
<path d="M321.806 641.201C321.806 644.407 319.207 647.006 316.001 647.006C312.792 647.006 310.193 644.407 310.193 641.201C310.193 637.992 312.792 635.393 316.001 635.393C319.207 635.393 321.806 637.992 321.806 641.201Z" fill="#3D7AC3" fill-opacity="0.5"/>
<path d="M405.816 525.334C405.816 529.723 402.257 533.283 397.867 533.283C393.478 533.283 389.918 529.723 389.918 525.334C389.918 520.944 393.478 517.385 397.867 517.385C402.257 517.385 405.816 520.944 405.816 525.334Z" fill="#3D7AC3" fill-opacity="0.5"/>
<path d="M155.74 616.495C155.74 619.702 153.14 622.301 149.934 622.301C146.726 622.301 144.126 619.702 144.126 616.495C144.126 613.286 146.726 610.687 149.934 610.687C153.14 610.687 155.74 613.286 155.74 616.495Z" fill="#3D7AC3" fill-opacity="0.5"/>
<path d="M333.629 641.201C333.629 650.935 325.735 658.829 316.001 658.829C306.264 658.829 298.373 650.935 298.373 641.201C298.373 631.464 306.264 623.573 316.001 623.573C325.735 623.573 333.629 631.464 333.629 641.201Z" fill="#3D7AC3" fill-opacity="0.5"/>
<path d="M196.74 502.399C196.74 505.608 194.14 508.207 190.933 508.207C187.726 508.207 185.126 505.608 185.126 502.399C185.126 499.193 187.726 496.594 190.933 496.594C194.14 496.594 196.74 499.193 196.74 502.399Z" fill="#3D7AC3" fill-opacity="0.5"/>
<path d="M152.409 488.367C152.409 491.573 149.81 494.172 146.603 494.172C143.395 494.172 140.796 491.573 140.796 488.367C140.796 485.16 143.395 482.558 146.603 482.558C149.81 482.558 152.409 485.16 152.409 488.367Z" fill="#3D7AC3" fill-opacity="0.5"/>
<path d="M155.74 616.495C155.74 619.702 153.14 622.301 149.934 622.301C146.726 622.301 144.126 619.702 144.126 616.495C144.126 613.286 146.726 610.687 149.934 610.687C153.14 610.687 155.74 613.286 155.74 616.495Z" fill="#3D7AC3" fill-opacity="0.5"/>
<path d="M196.74 502.399C196.74 505.608 194.14 508.207 190.933 508.207C187.726 508.207 185.126 505.608 185.126 502.399C185.126 499.193 187.726 496.594 190.933 496.594C194.14 496.594 196.74 499.193 196.74 502.399Z" fill="#3D7AC3" fill-opacity="0.5"/>
<path d="M337.406 431.599C337.406 434.808 334.807 437.407 331.601 437.407C328.392 437.407 325.793 434.808 325.793 431.599C325.793 428.393 328.392 425.794 331.601 425.794C334.807 425.794 337.406 428.393 337.406 431.599Z" fill="#3D7AC3" fill-opacity="0.5"/>
<path d="M174.498 391.392C174.498 394.599 171.897 397.198 168.691 397.198C165.484 397.198 162.884 394.599 162.884 391.392C162.884 388.186 165.484 385.584 168.691 385.584C171.897 385.584 174.498 388.186 174.498 391.392Z" fill="#3D7AC3" fill-opacity="0.5"/>
<path d="M196.74 502.399C196.74 505.608 194.14 508.207 190.933 508.207C187.726 508.207 185.126 505.608 185.126 502.399C185.126 499.193 187.726 496.594 190.933 496.594C194.14 496.594 196.74 499.193 196.74 502.399Z" fill="#3D7AC3" fill-opacity="0.5"/>
<path d="M174.498 391.392C174.498 394.599 171.897 397.198 168.691 397.198C165.484 397.198 162.884 394.599 162.884 391.392C162.884 388.186 165.484 385.584 168.691 385.584C171.897 385.584 174.498 388.186 174.498 391.392Z" fill="#3D7AC3" fill-opacity="0.5"/>
<path d="M243.674 338.134C243.674 341.34 241.073 343.939 237.866 343.939C234.66 343.939 232.059 341.34 232.059 338.134C232.059 334.927 234.66 332.326 237.866 332.326C241.073 332.326 243.674 334.927 243.674 338.134Z" fill="#3D7AC3" fill-opacity="0.5"/>
<path d="M211.387 324.588C211.387 327.132 209.325 329.194 206.782 329.194C204.237 329.194 202.175 327.132 202.175 324.588C202.175 322.044 204.237 319.983 206.782 319.983C209.325 319.983 211.387 322.044 211.387 324.588Z" fill="#3D7AC3" fill-opacity="0.5"/>
<path d="M344.779 431.599C344.779 438.879 338.88 444.78 331.601 444.78C324.322 444.78 318.42 438.879 318.42 431.599C318.42 424.32 324.322 418.421 331.601 418.421C338.88 418.421 344.779 424.32 344.779 431.599Z" fill="#3D7AC3" fill-opacity="0.5"/>
<path d="M381.408 319.2C381.408 322.407 378.806 325.008 375.6 325.008C372.394 325.008 369.792 322.407 369.792 319.2C369.792 315.994 372.394 313.392 375.6 313.392C378.806 313.392 381.408 315.994 381.408 319.2Z" fill="#3D7AC3" fill-opacity="0.5"/>
<path d="M585.007 277.121C585.007 280.327 582.408 282.927 579.199 282.927C575.993 282.927 573.394 280.327 573.394 277.121C573.394 273.912 575.993 271.313 579.199 271.313C582.408 271.313 585.007 273.912 585.007 277.121Z" fill="#3D7AC3" fill-opacity="0.5"/>
<path d="M624.482 187.2C624.482 191.59 620.923 195.149 616.534 195.149C612.142 195.149 608.582 191.59 608.582 187.2C608.582 182.811 612.142 179.249 616.534 179.249C620.923 179.249 624.482 182.811 624.482 187.2Z" fill="#3D7AC3" fill-opacity="0.5"/>
<path d="M367.44 185.801C367.44 189.007 364.841 191.607 361.634 191.607C358.426 191.607 355.826 189.007 355.826 185.801C355.826 182.592 358.426 179.993 361.634 179.993C364.841 179.993 367.44 182.592 367.44 185.801Z" fill="#3D7AC3" fill-opacity="0.5"/>
<path d="M381.408 319.2C381.408 322.407 378.806 325.008 375.6 325.008C372.394 325.008 369.792 322.407 369.792 319.2C369.792 315.994 372.394 313.392 375.6 313.392C378.806 313.392 381.408 315.994 381.408 319.2Z" fill="#3D7AC3" fill-opacity="0.5"/>
<path d="M274.488 248.918C274.488 251.122 272.702 252.907 270.499 252.907C268.296 252.907 266.51 251.122 266.51 248.918C266.51 246.715 268.296 244.93 270.499 244.93C272.702 244.93 274.488 246.715 274.488 248.918Z" fill="#3D7AC3" fill-opacity="0.5"/>
<path d="M367.44 185.801C367.44 189.007 364.841 191.607 361.634 191.607C358.426 191.607 355.826 189.007 355.826 185.801C355.826 182.592 358.426 179.993 361.634 179.993C364.841 179.993 367.44 182.592 367.44 185.801Z" fill="#3D7AC3" fill-opacity="0.5"/>
<path d="M381.408 319.2C381.408 322.407 378.806 325.008 375.6 325.008C372.394 325.008 369.792 322.407 369.792 319.2C369.792 315.994 372.394 313.392 375.6 313.392C378.806 313.392 381.408 315.994 381.408 319.2Z" fill="#3D7AC3" fill-opacity="0.5"/>
<path d="M457.219 153.135C457.219 156.341 454.62 158.94 451.411 158.94C448.205 158.94 445.606 156.341 445.606 153.135C445.606 149.928 448.205 147.327 451.411 147.327C454.62 147.327 457.219 149.928 457.219 153.135Z" fill="#3D7AC3" fill-opacity="0.5"/>
<path d="M589.766 277.121C589.766 282.955 585.036 287.686 579.199 287.686C573.365 287.686 568.634 282.955 568.634 277.121C568.634 271.284 573.365 266.554 579.199 266.554C585.036 266.554 589.766 271.284 589.766 277.121Z" fill="#3D7AC3" fill-opacity="0.5"/>
<path d="M526.649 143.741C526.649 146.947 524.05 149.547 520.843 149.547C517.637 149.547 515.035 146.947 515.035 143.741C515.035 140.535 517.637 137.933 520.843 137.933C524.05 137.933 526.649 140.535 526.649 143.741Z" fill="#3D7AC3" fill-opacity="0.5"/>
<path d="M369.972 185.801C369.972 190.407 366.24 194.139 361.634 194.139C357.029 194.139 353.294 190.407 353.294 185.801C353.294 181.195 357.029 177.461 361.634 177.461C366.24 177.461 369.972 181.195 369.972 185.801Z" fill="#3D7AC3" fill-opacity="0.5"/>
</svg>
