<svg width="109" height="109" viewBox="0 0 109 109" fill="none" xmlns="http://www.w3.org/2000/svg">
<path d="M109 54.5C109 84.5995 84.5995 109 54.5 109C24.4005 109 0 84.5995 0 54.5C0 24.4005 24.4005 0 54.5 0C84.5995 0 109 24.4005 109 54.5Z" fill="#3DBDC3"/>
<path fill-rule="evenodd" clip-rule="evenodd" d="M54.5 107C83.4949 107 107 83.4949 107 54.5C107 25.5051 83.4949 2 54.5 2C25.5051 2 2 25.5051 2 54.5C2 83.4949 25.5051 107 54.5 107ZM54.5 109C84.5995 109 109 84.5995 109 54.5C109 24.4005 84.5995 0 54.5 0C24.4005 0 0 24.4005 0 54.5C0 84.5995 24.4005 109 54.5 109Z" fill="#1D1D2C"/>
<path d="M13.512 49.336C13.512 48.2267 13.7413 47.24 14.2 46.376C14.6693 45.5013 15.3306 44.824 16.184 44.344C17.0373 43.8533 18.0186 43.608 19.128 43.608C20.536 43.608 21.72 43.9867 22.68 44.744C23.64 45.4907 24.2586 46.5093 24.536 47.8H21.16C20.9573 47.3733 20.6746 47.048 20.312 46.824C19.96 46.6 19.5493 46.488 19.08 46.488C18.3546 46.488 17.7733 46.7493 17.336 47.272C16.9093 47.784 16.696 48.472 16.696 49.336C16.696 50.2107 16.9093 50.9093 17.336 51.432C17.7733 51.944 18.3546 52.2 19.08 52.2C19.5493 52.2 19.96 52.088 20.312 51.864C20.6746 51.64 20.9573 51.3147 21.16 50.888H24.536C24.2586 52.1787 23.64 53.2027 22.68 53.96C21.72 54.7067 20.536 55.08 19.128 55.08C18.0186 55.08 17.0373 54.84 16.184 54.36C15.3306 53.8693 14.6693 53.192 14.2 52.328C13.7413 51.4533 13.512 50.456 13.512 49.336Z" fill="#1D1D2C"/>
<path d="M31.429 55.112C30.373 55.112 29.4023 54.8667 28.517 54.376C27.6316 53.8747 26.9276 53.1867 26.405 52.312C25.893 51.4267 25.637 50.4293 25.637 49.32C25.637 48.2107 25.893 47.2187 26.405 46.344C26.9276 45.4587 27.6316 44.7707 28.517 44.28C29.4023 43.7893 30.373 43.544 31.429 43.544C32.4956 43.544 33.4663 43.7893 34.341 44.28C35.2263 44.7707 35.925 45.4587 36.437 46.344C36.949 47.2187 37.205 48.2107 37.205 49.32C37.205 50.4293 36.949 51.4267 36.437 52.312C35.925 53.1867 35.2263 53.8747 34.341 54.376C33.4556 54.8667 32.485 55.112 31.429 55.112ZM31.429 52.2C32.229 52.2 32.8583 51.9387 33.317 51.416C33.7863 50.8933 34.021 50.1947 34.021 49.32C34.021 48.424 33.7863 47.72 33.317 47.208C32.8583 46.6853 32.229 46.424 31.429 46.424C30.6183 46.424 29.9836 46.6853 29.525 47.208C29.0663 47.72 28.837 48.424 28.837 49.32C28.837 50.2053 29.0663 50.9093 29.525 51.432C29.9836 51.944 30.6183 52.2 31.429 52.2Z" fill="#1D1D2C"/>
<path d="M49.0627 55H45.9267L41.7507 48.696V55H38.6147V43.72H41.7507L45.9267 50.104V43.72H49.0627V55Z" fill="#1D1D2C"/>
<path d="M59.3451 43.72V46.216H56.3371V55H53.2011V46.216H50.2251V43.72H59.3451Z" fill="#1D1D2C"/>
<path d="M67.6413 53.16H63.6413L63.0333 55H59.7373L63.8493 43.72H67.4653L71.5613 55H68.2493L67.6413 53.16ZM66.8573 50.76L65.6413 47.112L64.4413 50.76H66.8573Z" fill="#1D1D2C"/>
<path d="M72.1995 49.336C72.1995 48.2267 72.4288 47.24 72.8875 46.376C73.3568 45.5013 74.0181 44.824 74.8715 44.344C75.7248 43.8533 76.7061 43.608 77.8155 43.608C79.2235 43.608 80.4075 43.9867 81.3675 44.744C82.3275 45.4907 82.9461 46.5093 83.2235 47.8H79.8475C79.6448 47.3733 79.3621 47.048 78.9995 46.824C78.6475 46.6 78.2368 46.488 77.7675 46.488C77.0421 46.488 76.4608 46.7493 76.0235 47.272C75.5968 47.784 75.3835 48.472 75.3835 49.336C75.3835 50.2107 75.5968 50.9093 76.0235 51.432C76.4608 51.944 77.0421 52.2 77.7675 52.2C78.2368 52.2 78.6475 52.088 78.9995 51.864C79.3621 51.64 79.6448 51.3147 79.8475 50.888H83.2235C82.9461 52.1787 82.3275 53.2027 81.3675 53.96C80.4075 54.7067 79.2235 55.08 77.8155 55.08C76.7061 55.08 75.7248 54.84 74.8715 54.36C74.0181 53.8693 73.3568 53.192 72.8875 52.328C72.4288 51.4533 72.1995 50.456 72.1995 49.336Z" fill="#1D1D2C"/>
<path d="M93.2045 43.72V46.216H90.1965V55H87.0605V46.216H84.0845V43.72H93.2045Z" fill="#1D1D2C"/>
<path fill-rule="evenodd" clip-rule="evenodd" d="M83 63H15V60H83V63Z" fill="#1D1D2C"/>
<path d="M91 61.5C91 62.8807 89.8807 64 88.5 64C87.1193 64 86 62.8807 86 61.5C86 60.1193 87.1193 59 88.5 59C89.8807 59 91 60.1193 91 61.5Z" fill="#1D1D2C"/>
</svg>
