<svg width="282" height="75" viewBox="0 0 282 75" fill="none" xmlns="http://www.w3.org/2000/svg">
<g clip-path="url(#clip0_1_2)">
<path d="M36.632 34.568C36.632 35.592 36.568 36.6586 36.44 37.768H11.672C11.8427 39.9866 12.5467 41.6933 13.784 42.888C15.064 44.04 16.6213 44.616 18.456 44.616C21.1867 44.616 23.0853 43.464 24.152 41.16H35.8C35.2027 43.5067 34.1147 45.6187 32.536 47.496C31 49.3733 29.0587 50.8453 26.712 51.912C24.3653 52.9787 21.7413 53.512 18.84 53.512C15.3413 53.512 12.2267 52.7653 9.49599 51.272C6.76533 49.7787 4.63199 47.6453 3.09599 44.872C1.55999 42.0987 0.791992 38.856 0.791992 35.144C0.791992 31.432 1.53866 28.1893 3.03199 25.416C4.56799 22.6427 6.70133 20.5093 9.43199 19.016C12.1627 17.5226 15.2987 16.776 18.84 16.776C22.296 16.776 25.368 17.5013 28.056 18.952C30.744 20.4027 32.8347 22.472 34.328 25.16C35.864 27.848 36.632 30.984 36.632 34.568ZM25.432 31.688C25.432 29.8107 24.792 28.3173 23.512 27.208C22.232 26.0987 20.632 25.544 18.712 25.544C16.8773 25.544 15.32 26.0773 14.04 27.144C12.8027 28.2106 12.0347 29.7253 11.736 31.688H25.432Z" fill="#1D1D2C"/>
<path d="M84.9735 16.904C89.4108 16.904 92.9308 18.248 95.5335 20.936C98.1788 23.624 99.501 27.3573 99.501 32.136V53H88.6215V33.608C88.6215 31.304 88.0028 29.5333 86.7655 28.296C85.5708 27.016 83.9068 26.376 81.7735 26.376C79.6402 26.376 77.9548 27.016 76.7175 28.296C75.5228 29.5333 74.9255 31.304 74.9255 33.608V53H64.0455V33.608C64.0455 31.304 63.4268 29.5333 62.1895 28.296C60.9948 27.016 59.3308 26.376 57.1975 26.376C55.0642 26.376 53.3788 27.016 52.1415 28.296C50.9468 29.5333 50.3495 31.304 50.3495 33.608V53H39.4055V17.288H50.3495V21.768C51.4588 20.2747 52.9095 19.1013 54.7015 18.248C56.4935 17.352 58.5202 16.904 60.7815 16.904C63.4695 16.904 65.8588 17.48 67.9495 18.632C70.0828 19.784 71.7468 21.4266 72.9415 23.56C74.1788 21.5973 75.8642 19.9973 77.9975 18.76C80.1308 17.5227 82.4562 16.904 84.9735 16.904Z" fill="#1D1D2C"/>
<path d="M114.099 22.344C115.166 20.68 116.638 19.336 118.515 18.312C120.393 17.288 122.59 16.776 125.107 16.776C128.051 16.776 130.718 17.5226 133.107 19.016C135.497 20.5093 137.374 22.6427 138.739 25.416C140.147 28.1893 140.851 31.4107 140.851 35.08C140.851 38.7493 140.147 41.992 138.739 44.808C137.374 47.5813 135.497 49.736 133.107 51.272C130.718 52.7653 128.051 53.512 125.107 53.512C122.633 53.512 120.435 53 118.515 51.976C116.638 50.952 115.166 49.6293 114.099 48.008L114.035 61H103.155V17.288H114.099V22.344ZM129.715 35.08C129.715 32.3493 128.947 30.216 127.411 28.68C125.918 27.1013 124.062 26.312 121.843 26.312C119.667 26.312 117.811 27.1013 116.275 28.68C114.782 30.2587 114.035 32.4133 114.035 35.144C114.035 37.8746 114.782 40.0293 116.275 41.608C117.811 43.1867 119.667 43.976 121.843 43.976C124.019 43.976 125.875 43.1867 127.411 41.608C128.947 39.9867 129.715 37.8107 129.715 35.08Z" fill="#1D1D2C"/>
<path d="M143.417 35.08C143.417 31.4107 144.1 28.1893 145.465 25.416C146.873 22.6427 148.772 20.5093 151.161 19.016C153.55 17.5226 156.217 16.776 159.161 16.776C161.678 16.776 163.876 17.288 165.753 18.312C167.673 19.336 169.145 20.68 170.169 22.344V17.288H181.113V53H170.169V47.944C169.102 49.608 167.609 50.952 165.689 51.976C163.812 53 161.614 53.512 159.097 53.512C156.196 53.512 153.55 52.7653 151.161 51.272C148.772 49.736 146.873 47.5813 145.465 44.808C144.1 41.992 143.417 38.7493 143.417 35.08ZM170.169 35.144C170.169 32.4133 169.401 30.2587 167.865 28.68C166.372 27.1013 164.537 26.312 162.361 26.312C160.185 26.312 158.329 27.1013 156.793 28.68C155.3 30.216 154.553 32.3493 154.553 35.08C154.553 37.8107 155.3 39.9867 156.793 41.608C158.329 43.1867 160.185 43.976 162.361 43.976C164.537 43.976 166.372 43.1867 167.865 41.608C169.401 40.0293 170.169 37.8746 170.169 35.144Z" fill="#1D1D2C"/>
<path d="M206.934 43.72V53H201.366C197.398 53 194.305 52.04 192.086 50.12C189.868 48.1573 188.758 44.9787 188.758 40.584V26.376H184.406V17.288H188.758V8.58398H199.702V17.288H206.87V26.376H199.702V40.712C199.702 41.7786 199.958 42.5466 200.47 43.016C200.982 43.4853 201.836 43.72 203.03 43.72H206.934Z" fill="#1D1D2C"/>
<path d="M222.974 17.288V53H212.03V17.288H222.974Z" fill="#1D1D2C"/>
<path d="M226.729 35.08C226.729 31.4107 227.412 28.1893 228.777 25.416C230.185 22.6427 232.084 20.5093 234.473 19.016C236.863 17.5226 239.529 16.776 242.473 16.776C244.991 16.776 247.188 17.288 249.065 18.312C250.985 19.336 252.458 20.68 253.482 22.344V17.288H264.426V53H253.482V47.944C252.415 49.608 250.921 50.952 249.001 51.976C247.124 53 244.927 53.512 242.409 53.512C239.508 53.512 236.863 52.7653 234.473 51.272C232.084 49.736 230.185 47.5813 228.777 44.808C227.412 41.992 226.729 38.7493 226.729 35.08ZM253.482 35.144C253.482 32.4133 252.713 30.2587 251.177 28.68C249.684 27.1013 247.849 26.312 245.673 26.312C243.497 26.312 241.641 27.1013 240.105 28.68C238.612 30.216 237.865 32.3493 237.865 35.08C237.865 37.8107 238.612 39.9867 240.105 41.608C241.641 43.1867 243.497 43.976 245.673 43.976C247.849 43.976 249.684 43.1867 251.177 41.608C252.713 40.0293 253.482 37.8746 253.482 35.144Z" fill="#1D1D2C"/>
<path d="M217.5 15C221.09 15 224 12.0899 224 8.5C224 4.91015 221.09 2 217.5 2C213.91 2 211 4.91015 211 8.5C211 12.0899 213.91 15 217.5 15Z" fill="#1D1D2C"/>
<path d="M274.5 53C278.09 53 281 50.0899 281 46.5C281 42.9101 278.09 40 274.5 40C270.91 40 268 42.9101 268 46.5C268 50.0899 270.91 53 274.5 53Z" fill="#3DBDC3"/>
<path d="M67.2898 65.5455V75H66.1449V65.5455H67.2898ZM77.0825 65.5455V75H75.9745L70.8225 67.5767H70.7302V75H69.5853V65.5455H70.6933L75.8637 72.9872H75.9561V65.5455H77.0825ZM86.8706 65.5455V75H85.7626L80.6106 67.5767H80.5183V75H79.3734V65.5455H80.4814L85.6518 72.9872H85.7441V65.5455H86.8706ZM97.1388 70.2727C97.1388 71.2699 96.9587 72.1316 96.5986 72.858C96.2385 73.5843 95.7446 74.1444 95.1167 74.5384C94.4889 74.9323 93.7718 75.1293 92.9655 75.1293C92.1591 75.1293 91.442 74.9323 90.8142 74.5384C90.1863 74.1444 89.6924 73.5843 89.3323 72.858C88.9722 72.1316 88.7922 71.2699 88.7922 70.2727C88.7922 69.2756 88.9722 68.4138 89.3323 67.6875C89.6924 66.9612 90.1863 66.401 90.8142 66.0071C91.442 65.6132 92.1591 65.4162 92.9655 65.4162C93.7718 65.4162 94.4889 65.6132 95.1167 66.0071C95.7446 66.401 96.2385 66.9612 96.5986 67.6875C96.9587 68.4138 97.1388 69.2756 97.1388 70.2727ZM96.0308 70.2727C96.0308 69.4541 95.8939 68.7631 95.6199 68.1999C95.3491 67.6367 94.9813 67.2105 94.5166 66.9212C94.055 66.6319 93.5379 66.4872 92.9655 66.4872C92.393 66.4872 91.8744 66.6319 91.4097 66.9212C90.9481 67.2105 90.5803 67.6367 90.3064 68.1999C90.0355 68.7631 89.9001 69.4541 89.9001 70.2727C89.9001 71.0914 90.0355 71.7823 90.3064 72.3455C90.5803 72.9087 90.9481 73.335 91.4097 73.6243C91.8744 73.9136 92.393 74.0582 92.9655 74.0582C93.5379 74.0582 94.055 73.9136 94.5166 73.6243C94.9813 73.335 95.3491 72.9087 95.6199 72.3455C95.8939 71.7823 96.0308 71.0914 96.0308 70.2727ZM99.0073 65.5455L101.814 73.5043H101.925L104.732 65.5455H105.932L102.46 75H101.279L97.807 65.5455H99.0073ZM106.98 75H105.78L109.251 65.5455H110.433L113.905 75H112.704L109.879 67.0412H109.805L106.98 75ZM107.423 71.3068H112.261V72.3224H107.423V71.3068ZM113.756 66.5611V65.5455H120.847V66.5611H117.874V75H116.729V66.5611H113.756ZM123.759 65.5455V75H122.614V65.5455H123.759ZM126.442 65.5455L129.249 73.5043H129.359L132.166 65.5455H133.367L129.895 75H128.713L125.242 65.5455H126.442ZM134.839 75V65.5455H140.545V66.5611H135.984V69.7557H140.25V70.7713H135.984V73.9844H140.619V75H134.839ZM145.748 66.5611V65.5455H152.839V66.5611H149.866V75H148.721V66.5611H145.748ZM154.606 75V65.5455H157.8C158.539 65.5455 159.145 65.6716 159.619 65.924C160.093 66.1733 160.444 66.5165 160.672 66.9535C160.9 67.3905 161.013 67.8875 161.013 68.4446C161.013 69.0017 160.9 69.4956 160.672 69.9265C160.444 70.3574 160.095 70.6959 159.624 70.9421C159.153 71.1853 158.551 71.3068 157.819 71.3068H155.234V70.2727H157.782C158.287 70.2727 158.693 70.1989 159.001 70.0511C159.312 69.9034 159.536 69.6941 159.675 69.4233C159.816 69.1494 159.887 68.8232 159.887 68.4446C159.887 68.0661 159.816 67.7352 159.675 67.4521C159.533 67.1689 159.307 66.9504 158.996 66.7965C158.685 66.6396 158.274 66.5611 157.763 66.5611H155.751V75H154.606ZM159.056 70.7528L161.383 75H160.053L157.763 70.7528H159.056ZM163.309 75H162.109L165.58 65.5455H166.762L170.234 75H169.033L166.208 67.0412H166.134L163.309 75ZM163.752 71.3068H168.59V72.3224H163.752V71.3068ZM179.204 65.5455V75H178.096L172.944 67.5767H172.851V75H171.706V65.5455H172.814L177.985 72.9872H178.077V65.5455H179.204ZM186.665 67.9091C186.61 67.4413 186.385 67.0781 185.991 66.8196C185.597 66.5611 185.114 66.4318 184.541 66.4318C184.123 66.4318 183.757 66.4995 183.443 66.6349C183.132 66.7704 182.889 66.9566 182.713 67.1935C182.541 67.4305 182.455 67.6998 182.455 68.0014C182.455 68.2538 182.515 68.4708 182.635 68.6523C182.758 68.8308 182.915 68.9801 183.106 69.1001C183.296 69.2171 183.497 69.314 183.706 69.391C183.915 69.4648 184.107 69.5249 184.283 69.571L185.243 69.8295C185.489 69.8942 185.763 69.9834 186.065 70.0973C186.369 70.2112 186.66 70.3666 186.937 70.5636C187.217 70.7575 187.448 71.0067 187.63 71.3114C187.811 71.6161 187.902 71.9901 187.902 72.4332C187.902 72.9441 187.768 73.4058 187.501 73.8182C187.236 74.2306 186.848 74.5584 186.337 74.8015C185.829 75.0446 185.212 75.1662 184.486 75.1662C183.809 75.1662 183.223 75.0569 182.727 74.8384C182.235 74.6199 181.847 74.3152 181.564 73.9244C181.284 73.5335 181.125 73.0795 181.088 72.5625H182.27C182.301 72.9195 182.421 73.215 182.63 73.4489C182.843 73.6797 183.11 73.852 183.433 73.9659C183.76 74.0767 184.11 74.1321 184.486 74.1321C184.923 74.1321 185.315 74.0613 185.663 73.9197C186.011 73.7751 186.286 73.575 186.49 73.3196C186.693 73.0611 186.794 72.7595 186.794 72.4148C186.794 72.1009 186.706 71.8454 186.531 71.6484C186.356 71.4515 186.125 71.2914 185.839 71.1683C185.552 71.0452 185.243 70.9375 184.911 70.8452L183.747 70.5128C183.009 70.3004 182.424 69.9973 181.993 69.6033C181.562 69.2094 181.347 68.6939 181.347 68.0568C181.347 67.5275 181.49 67.0658 181.776 66.6719C182.065 66.2749 182.453 65.9671 182.939 65.7486C183.429 65.527 183.975 65.4162 184.578 65.4162C185.188 65.4162 185.729 65.5254 186.203 65.744C186.677 65.9594 187.053 66.2549 187.33 66.6303C187.61 67.0058 187.758 67.4321 187.773 67.9091H186.665ZM189.785 75V65.5455H195.454V66.5611H190.929V69.7557H195.029V70.7713H190.929V75H189.785ZM205.392 70.2727C205.392 71.2699 205.212 72.1316 204.852 72.858C204.491 73.5843 203.998 74.1444 203.37 74.5384C202.742 74.9323 202.025 75.1293 201.218 75.1293C200.412 75.1293 199.695 74.9323 199.067 74.5384C198.439 74.1444 197.945 73.5843 197.585 72.858C197.225 72.1316 197.045 71.2699 197.045 70.2727C197.045 69.2756 197.225 68.4138 197.585 67.6875C197.945 66.9612 198.439 66.401 199.067 66.0071C199.695 65.6132 200.412 65.4162 201.218 65.4162C202.025 65.4162 202.742 65.6132 203.37 66.0071C203.998 66.401 204.491 66.9612 204.852 67.6875C205.212 68.4138 205.392 69.2756 205.392 70.2727ZM204.284 70.2727C204.284 69.4541 204.147 68.7631 203.873 68.1999C203.602 67.6367 203.234 67.2105 202.77 66.9212C202.308 66.6319 201.791 66.4872 201.218 66.4872C200.646 66.4872 200.127 66.6319 199.663 66.9212C199.201 67.2105 198.833 67.6367 198.559 68.1999C198.288 68.7631 198.153 69.4541 198.153 70.2727C198.153 71.0914 198.288 71.7823 198.559 72.3455C198.833 72.9087 199.201 73.335 199.663 73.6243C200.127 73.9136 200.646 74.0582 201.218 74.0582C201.791 74.0582 202.308 73.9136 202.77 73.6243C203.234 73.335 203.602 72.9087 203.873 72.3455C204.147 71.7823 204.284 71.0914 204.284 70.2727ZM207.317 75V65.5455H210.511C211.25 65.5455 211.856 65.6716 212.33 65.924C212.804 66.1733 213.155 66.5165 213.383 66.9535C213.611 67.3905 213.724 67.8875 213.724 68.4446C213.724 69.0017 213.611 69.4956 213.383 69.9265C213.155 70.3574 212.806 70.6959 212.335 70.9421C211.864 71.1853 211.262 71.3068 210.53 71.3068H207.945V70.2727H210.493C210.998 70.2727 211.404 70.1989 211.712 70.0511C212.022 69.9034 212.247 69.6941 212.386 69.4233C212.527 69.1494 212.598 68.8232 212.598 68.4446C212.598 68.0661 212.527 67.7352 212.386 67.4521C212.244 67.1689 212.018 66.9504 211.707 66.7965C211.396 66.6396 210.985 66.5611 210.474 66.5611H208.462V75H207.317ZM211.767 70.7528L214.094 75H212.764L210.474 70.7528H211.767ZM215.632 65.5455H216.999L220.212 73.3935H220.323L223.536 65.5455H224.902V75H223.831V67.8168H223.739L220.784 75H219.75L216.796 67.8168H216.703V75H215.632V65.5455ZM227.585 75H226.385L229.857 65.5455H231.039L234.51 75H233.31L230.485 67.0412H230.411L227.585 75ZM228.029 71.3068H232.867V72.3224H228.029V71.3068ZM234.361 66.5611V65.5455H241.452V66.5611H238.479V75H237.334V66.5611H234.361ZM244.364 65.5455V75H243.219V65.5455H244.364ZM254.637 70.2727C254.637 71.2699 254.457 72.1316 254.097 72.858C253.737 73.5843 253.243 74.1444 252.615 74.5384C251.987 74.9323 251.27 75.1293 250.464 75.1293C249.657 75.1293 248.94 74.9323 248.312 74.5384C247.684 74.1444 247.19 73.5843 246.83 72.858C246.47 72.1316 246.29 71.2699 246.29 70.2727C246.29 69.2756 246.47 68.4138 246.83 67.6875C247.19 66.9612 247.684 66.401 248.312 66.0071C248.94 65.6132 249.657 65.4162 250.464 65.4162C251.27 65.4162 251.987 65.6132 252.615 66.0071C253.243 66.401 253.737 66.9612 254.097 67.6875C254.457 68.4138 254.637 69.2756 254.637 70.2727ZM253.529 70.2727C253.529 69.4541 253.392 68.7631 253.118 68.1999C252.847 67.6367 252.479 67.2105 252.015 66.9212C251.553 66.6319 251.036 66.4872 250.464 66.4872C249.891 66.4872 249.372 66.6319 248.908 66.9212C248.446 67.2105 248.078 67.6367 247.804 68.1999C247.534 68.7631 247.398 69.4541 247.398 70.2727C247.398 71.0914 247.534 71.7823 247.804 72.3455C248.078 72.9087 248.446 73.335 248.908 73.6243C249.372 73.9136 249.891 74.0582 250.464 74.0582C251.036 74.0582 251.553 73.9136 252.015 73.6243C252.479 73.335 252.847 72.9087 253.118 72.3455C253.392 71.7823 253.529 71.0914 253.529 70.2727ZM264.059 65.5455V75H262.951L257.799 67.5767H257.707V75H256.562V65.5455H257.67L262.84 72.9872H262.933V65.5455H264.059Z" fill="black"/>
</g>
<defs>
<clipPath id="clip0_1_2">
<rect width="282" height="75" fill="white"/>
</clipPath>
</defs>
</svg>
